<?xml version="1.0" standalone="yes"?>

<svg version="1.1" viewBox="0.0 0.0 960.0 720.0" fill="none" stroke="none" stroke-linecap="square" stroke-miterlimit="10" xmlns="http://www.w3.org/2000/svg" xmlns:xlink="http://www.w3.org/1999/xlink"><path d="M369.74802 113.30971L590.25195 113.30971L590.25195 184.08136L369.74802 184.08136Z" fill-rule="nonzero" fill="#ffe599" stroke="#073763" stroke-width="2.0" stroke-linejoin="round" stroke-linecap="butt"></path><path d="M470.95114 150.41908L472.74802 150.87221Q472.18552 153.09096 470.71677 154.25502Q469.24802 155.41908 467.12302 155.41908Q464.9199 155.41908 463.5449 154.52065Q462.1699 153.62221 461.45114 151.9269Q460.7324 150.23158 460.7324 148.27846Q460.7324 146.15346 461.53708 144.57533Q462.34177 142.99721 463.84177 142.1769Q465.34177 141.35658 467.13864 141.35658Q469.18552 141.35658 470.57614 142.39565Q471.96677 143.43471 472.51364 145.30971L470.74802 145.73158Q470.27927 144.24721 469.37302 143.56752Q468.46677 142.88783 467.1074 142.88783Q465.5449 142.88783 464.4902 143.63783Q463.43552 144.38783 463.00583 145.66127Q462.57614 146.93471 462.57614 148.27846Q462.57614 150.01283 463.08395 151.3019Q463.59177 152.59096 464.66208 153.23158Q465.7324 153.87221 466.96677 153.87221Q468.4824 153.87221 469.52927 153.00502Q470.57614 152.13783 470.95114 150.41908ZM473.87302 150.26283Q473.87302 147.52846 475.40427 146.20033Q476.6699 145.10658 478.49802 145.10658Q480.52927 145.10658 481.81833 146.44252Q483.1074 147.77846 483.1074 150.12221Q483.1074 152.02846 482.53708 153.1144Q481.96677 154.20033 480.88083 154.8019Q479.7949 155.40346 478.49802 155.40346Q476.43552 155.40346 475.15427 154.07533Q473.87302 152.74721 473.87302 150.26283ZM475.59177 150.26283Q475.59177 152.15346 476.4199 153.09096Q477.24802 154.02846 478.49802 154.02846Q479.74802 154.02846 480.56833 153.08315Q481.38864 152.13783 481.38864 150.20033Q481.38864 148.37221 480.56052 147.43471Q479.7324 146.49721 478.49802 146.49721Q477.24802 146.49721 476.4199 147.43471Q475.59177 148.37221 475.59177 150.26283ZM484.8574 155.18471L484.8574 145.32533L486.3574 145.32533L486.3574 146.82533Q486.93552 145.77846 487.4199 145.44252Q487.90427 145.10658 488.49802 145.10658Q489.34177 145.10658 490.21677 145.65346L489.63864 147.20033Q489.02927 146.84096 488.40427 146.84096Q487.8574 146.84096 487.4277 147.16908Q486.99802 147.49721 486.81052 148.07533Q486.52927 148.96596 486.52927 150.02846L486.52927 155.18471L484.8574 155.18471ZM497.84177 152.01283L499.56052 152.23158Q499.15427 153.73158 498.0527 154.56752Q496.95114 155.40346 495.2324 155.40346Q493.07614 155.40346 491.81052 154.07533Q490.5449 152.74721 490.5449 150.34096Q490.5449 147.85658 491.81833 146.48158Q493.09177 145.10658 495.13864 145.10658Q497.12302 145.10658 498.37302 146.45033Q499.62302 147.79408 499.62302 150.24721Q499.62302 150.38783 499.6074 150.68471L492.26364 150.68471Q492.3574 152.30971 493.18552 153.16908Q494.01364 154.02846 495.24802 154.02846Q496.15427 154.02846 496.8027 153.5519Q497.45114 153.07533 497.84177 152.01283ZM492.3574 149.30971L497.8574 149.30971Q497.74802 148.07533 497.2324 147.45033Q496.43552 146.48158 495.15427 146.48158Q494.01364 146.48158 493.22458 147.25502Q492.43552 148.02846 492.3574 149.30971Z" fill-rule="nonzero" fill="#000000"></path><path d="M518.37006 250.11285L738.874 250.11285L738.874 320.88452L518.37006 320.88452Z" fill-rule="nonzero" fill="#ffd966" stroke="#073763" stroke-width="2.0" stroke-linejoin="round" stroke-linecap="butt"></path><path d="M618.80756 286.65973L618.80756 285.05035L624.5732 285.05035L624.5732 290.09723Q623.24506 291.15973 621.831 291.69098Q620.41693 292.22223 618.93256 292.22223Q616.93256 292.22223 615.29974 291.36285Q613.66693 290.50348 612.831 288.87848Q611.99506 287.25348 611.99506 285.25348Q611.99506 283.2691 612.8232 281.55035Q613.6513 279.8316 615.2138 278.99567Q616.7763 278.15973 618.80756 278.15973Q620.2763 278.15973 621.4716 278.6363Q622.66693 279.11285 623.3388 279.96442Q624.0107 280.81598 624.37006 282.19098L622.74506 282.62848Q622.43256 281.59723 621.97943 281.00348Q621.5263 280.40973 620.68256 280.05035Q619.8388 279.69098 618.80756 279.69098Q617.5732 279.69098 616.67474 280.06598Q615.7763 280.44098 615.2216 281.05817Q614.66693 281.67535 614.37006 282.40973Q613.8388 283.65973 613.8388 285.1441Q613.8388 286.9566 614.4716 288.18317Q615.10443 289.40973 616.29974 290.00348Q617.49506 290.59723 618.8388 290.59723Q620.0107 290.59723 621.12006 290.1441Q622.22943 289.69098 622.80756 289.19098L622.80756 286.65973L618.80756 286.65973ZM633.49506 288.81598L635.2138 289.03473Q634.80756 290.53473 633.706 291.37067Q632.60443 292.2066 630.8857 292.2066Q628.72943 292.2066 627.4638 290.87848Q626.1982 289.55035 626.1982 287.1441Q626.1982 284.65973 627.4716 283.28473Q628.74506 281.90973 630.79193 281.90973Q632.7763 281.90973 634.0263 283.25348Q635.2763 284.59723 635.2763 287.05035Q635.2763 287.19098 635.2607 287.48785L627.91693 287.48785Q628.0107 289.11285 628.8388 289.97223Q629.66693 290.8316 630.9013 290.8316Q631.80756 290.8316 632.456 290.35504Q633.10443 289.87848 633.49506 288.81598ZM628.0107 286.11285L633.5107 286.11285Q633.4013 284.87848 632.8857 284.25348Q632.0888 283.28473 630.80756 283.28473Q629.66693 283.28473 628.87787 284.05817Q628.0888 284.8316 628.0107 286.11285ZM636.49506 287.06598Q636.49506 284.3316 638.0263 283.00348Q639.29193 281.90973 641.12006 281.90973Q643.1513 281.90973 644.44037 283.24567Q645.72943 284.5816 645.72943 286.92535Q645.72943 288.8316 645.1591 289.91754Q644.5888 291.00348 643.50287 291.60504Q642.41693 292.2066 641.12006 292.2066Q639.05756 292.2066 637.7763 290.87848Q636.49506 289.55035 636.49506 287.06598ZM638.2138 287.06598Q638.2138 288.9566 639.04193 289.8941Q639.87006 290.8316 641.12006 290.8316Q642.37006 290.8316 643.19037 289.8863Q644.0107 288.94098 644.0107 287.00348Q644.0107 285.17535 643.18256 284.23785Q642.35443 283.30035 641.12006 283.30035Q639.87006 283.30035 639.04193 284.23785Q638.2138 285.17535 638.2138 287.06598Z" fill-rule="nonzero" fill="#000000"></path><path d="M369.74802 402.54593L590.25195 402.54593L590.25195 473.3176L369.74802 473.3176Z" fill-rule="nonzero" fill="#f1c232" stroke="#073763" stroke-width="2.0" stroke-linejoin="round" stroke-linecap="butt"></path><path d="M454.81052 444.42093L451.20114 430.82718L453.0449 430.82718L455.1074 439.73343Q455.45114 441.13968 455.68552 442.51468Q456.20114 440.3428 456.2949 439.99905L458.88864 430.82718L461.06052 430.82718L463.01364 437.70218Q463.74802 440.26468 464.06052 442.51468Q464.32614 441.23343 464.74802 439.56155L466.87302 430.82718L468.68552 430.82718L464.95114 444.42093L463.21677 444.42093L460.3574 434.06155Q459.99802 432.76468 459.93552 432.4678Q459.71677 433.4053 459.52927 434.06155L456.63864 444.42093L454.81052 444.42093ZM469.84177 432.73343L469.84177 430.82718L471.51364 430.82718L471.51364 432.73343L469.84177 432.73343ZM469.84177 444.42093L469.84177 434.56155L471.51364 434.56155L471.51364 444.42093L469.84177 444.42093ZM480.3574 444.42093L480.3574 443.17093Q479.4199 444.63968 477.6074 444.63968Q476.43552 444.63968 475.44333 443.99124Q474.45114 443.3428 473.91208 442.17874Q473.37302 441.01468 473.37302 439.49905Q473.37302 438.0303 473.8652 436.82718Q474.3574 435.62405 475.33395 434.98343Q476.31052 434.3428 477.52927 434.3428Q478.4199 434.3428 479.1152 434.7178Q479.81052 435.0928 480.24802 435.70218L480.24802 430.82718L481.90427 430.82718L481.90427 444.42093L480.3574 444.42093ZM475.07614 439.49905Q475.07614 441.38968 475.88083 442.32718Q476.68552 443.26468 477.76364 443.26468Q478.8574 443.26468 479.62302 442.37405Q480.38864 441.48343 480.38864 439.63968Q480.38864 437.62405 479.6074 436.67874Q478.82614 435.73343 477.68552 435.73343Q476.57614 435.73343 475.82614 436.63968Q475.07614 437.54593 475.07614 439.49905ZM484.0449 445.23343L485.65427 445.48343Q485.76364 446.23343 486.2324 446.57718Q486.84177 447.0303 487.9199 447.0303Q489.09177 447.0303 489.71677 446.56937Q490.34177 446.10843 490.57614 445.2803Q490.70114 444.76468 490.68552 443.12405Q489.59177 444.42093 487.96677 444.42093Q485.93552 444.42093 484.81833 442.95218Q483.70114 441.48343 483.70114 439.43655Q483.70114 438.0303 484.21677 436.835Q484.7324 435.63968 485.70114 434.99124Q486.6699 434.3428 487.96677 434.3428Q489.71677 434.3428 490.84177 435.74905L490.84177 434.56155L492.38864 434.56155L492.38864 443.07718Q492.38864 445.38968 491.9199 446.35062Q491.45114 447.31155 490.43552 447.86624Q489.4199 448.42093 487.93552 448.42093Q486.1699 448.42093 485.08395 447.62405Q483.99802 446.82718 484.0449 445.23343ZM485.4199 439.31155Q485.4199 441.26468 486.19333 442.1553Q486.96677 443.04593 488.12302 443.04593Q489.26364 443.04593 490.0449 442.1553Q490.82614 441.26468 490.82614 439.37405Q490.82614 437.56155 490.02145 436.6475Q489.21677 435.73343 488.09177 435.73343Q486.9824 435.73343 486.20114 436.63187Q485.4199 437.5303 485.4199 439.31155ZM501.46677 441.24905L503.18552 441.4678Q502.77927 442.9678 501.6777 443.80374Q500.57614 444.63968 498.8574 444.63968Q496.70114 444.63968 495.43552 443.31155Q494.1699 441.98343 494.1699 439.57718Q494.1699 437.0928 495.44333 435.7178Q496.71677 434.3428 498.76364 434.3428Q500.74802 434.3428 501.99802 435.68655Q503.24802 437.0303 503.24802 439.48343Q503.24802 439.62405 503.2324 439.92093L495.88864 439.92093Q495.9824 441.54593 496.81052 442.4053Q497.63864 443.26468 498.87302 443.26468Q499.77927 443.26468 500.4277 442.78812Q501.07614 442.31155 501.46677 441.24905ZM495.9824 438.54593L501.4824 438.54593Q501.37302 437.31155 500.8574 436.68655Q500.06052 435.7178 498.77927 435.7178Q497.63864 435.7178 496.84958 436.49124Q496.06052 437.26468 495.9824 438.54593ZM508.74802 442.92093L508.9824 444.4053Q508.27927 444.54593 507.71677 444.54593Q506.81052 444.54593 506.31052 444.25687Q505.81052 443.9678 505.6074 443.50687Q505.40427 443.04593 505.40427 441.5303L505.40427 435.87405L504.1699 435.87405L504.1699 434.56155L505.40427 434.56155L505.40427 432.12405L507.06052 431.12405L507.06052 434.56155L508.74802 434.56155L508.74802 435.87405L507.06052 435.87405L507.06052 441.62405Q507.06052 442.3428 507.14645 442.54593Q507.2324 442.74905 507.43552 442.87405Q507.63864 442.99905 508.01364 442.99905Q508.27927 442.99905 508.74802 442.92093Z" fill-rule="nonzero" fill="#000000"></path><path d="M227.01575 250.11285L447.51968 250.11285L447.51968 320.88452L227.01575 320.88452Z" fill-rule="nonzero" fill="#ffd966" stroke="#073763" stroke-width="2.0" stroke-linejoin="round" stroke-linecap="butt"></path><path d="M318.28137 291.98785L318.28137 278.3941L320.09387 278.3941L320.09387 291.98785L318.28137 291.98785ZM322.95325 291.98785L322.95325 282.12848L324.45325 282.12848L324.45325 283.53473Q325.547 281.90973 327.59387 281.90973Q328.4845 281.90973 329.2345 282.23004Q329.9845 282.55035 330.35168 283.0738Q330.71887 283.59723 330.87512 284.30035Q330.96887 284.7691 330.96887 285.92535L330.96887 291.98785L329.297 291.98785L329.297 285.98785Q329.297 284.97223 329.10168 284.46442Q328.90637 283.9566 328.40637 283.65973Q327.90637 283.36285 327.2345 283.36285Q326.172 283.36285 325.39856 284.03473Q324.62512 284.7066 324.62512 286.61285L324.62512 291.98785L322.95325 291.98785ZM333.32825 295.7691L333.32825 282.12848L334.8595 282.12848L334.8595 283.40973Q335.39075 282.65973 336.07043 282.28473Q336.75012 281.90973 337.70325 281.90973Q338.96887 281.90973 339.93762 282.55817Q340.90637 283.2066 341.39856 284.3941Q341.89075 285.5816 341.89075 286.98785Q341.89075 288.50348 341.34387 289.71442Q340.797 290.92535 339.76575 291.56598Q338.7345 292.2066 337.59387 292.2066Q336.75012 292.2066 336.08606 291.85504Q335.422 291.50348 335.00012 290.97223L335.00012 295.7691L333.32825 295.7691ZM334.84387 287.11285Q334.84387 289.0191 335.6173 289.92535Q336.39075 290.8316 337.4845 290.8316Q338.59387 290.8316 339.38293 289.8941Q340.172 288.9566 340.172 286.97223Q340.172 285.09723 339.39856 284.15973Q338.62512 283.22223 337.547 283.22223Q336.4845 283.22223 335.66418 284.22223Q334.84387 285.22223 334.84387 287.11285ZM350.15637 291.98785L350.15637 290.53473Q349.01575 292.2066 347.03137 292.2066Q346.172 292.2066 345.41418 291.87067Q344.65637 291.53473 344.28918 291.03473Q343.922 290.53473 343.76575 289.80035Q343.672 289.30035 343.672 288.23785L343.672 282.12848L345.34387 282.12848L345.34387 287.59723Q345.34387 288.90973 345.43762 289.36285Q345.59387 290.0191 346.1095 290.3941Q346.62512 290.7691 347.37512 290.7691Q348.12512 290.7691 348.78137 290.3863Q349.43762 290.00348 349.71106 289.33942Q349.9845 288.67535 349.9845 287.40973L349.9845 282.12848L351.65637 282.12848L351.65637 291.98785L350.15637 291.98785ZM357.7345 290.48785L357.96887 291.97223Q357.26575 292.11285 356.70325 292.11285Q355.797 292.11285 355.297 291.8238Q354.797 291.53473 354.59387 291.0738Q354.39075 290.61285 354.39075 289.09723L354.39075 283.44098L353.15637 283.44098L353.15637 282.12848L354.39075 282.12848L354.39075 279.69098L356.047 278.69098L356.047 282.12848L357.7345 282.12848L357.7345 283.44098L356.047 283.44098L356.047 289.19098Q356.047 289.90973 356.13293 290.11285Q356.21887 290.31598 356.422 290.44098Q356.62512 290.56598 357.00012 290.56598Q357.26575 290.56598 357.7345 290.48785Z" fill-rule="nonzero" fill="#000000"></path><path d="M369.74802 0L590.25195 0L590.25195 70.77165L369.74802 70.77165Z" fill-rule="nonzero" fill="#fff2cc" stroke="#073763" stroke-width="2.0" stroke-linejoin="round" stroke-linecap="butt"></path><path d="M460.76364 41.875L460.76364 28.28125L470.6074 28.28125L470.6074 29.875L462.56052 29.875L462.56052 34.046875L470.09177 34.046875L470.09177 35.640625L462.56052 35.640625L462.56052 40.265625L470.9199 40.265625L470.9199 41.875L460.76364 41.875ZM472.93552 41.875L472.93552 32.015625L474.43552 32.015625L474.43552 33.515625Q475.01364 32.46875 475.49802 32.132812Q475.9824 31.796875 476.57614 31.796875Q477.4199 31.796875 478.2949 32.34375L477.71677 33.890625Q477.1074 33.53125 476.4824 33.53125Q475.93552 33.53125 475.50583 33.859375Q475.07614 34.1875 474.88864 34.765625Q474.6074 35.65625 474.6074 36.71875L474.6074 41.875L472.93552 41.875ZM479.15427 41.875L479.15427 32.015625L480.65427 32.015625L480.65427 33.515625Q481.2324 32.46875 481.71677 32.132812Q482.20114 31.796875 482.7949 31.796875Q483.63864 31.796875 484.51364 32.34375L483.93552 33.890625Q483.32614 33.53125 482.70114 33.53125Q482.15427 33.53125 481.72458 33.859375Q481.2949 34.1875 481.1074 34.765625Q480.82614 35.65625 480.82614 36.71875L480.82614 41.875L479.15427 41.875ZM484.76364 36.953125Q484.76364 34.21875 486.2949 32.890625Q487.56052 31.796875 489.38864 31.796875Q491.4199 31.796875 492.70895 33.132812Q493.99802 34.46875 493.99802 36.8125Q493.99802 38.71875 493.4277 39.804688Q492.8574 40.890625 491.77145 41.492188Q490.68552 42.09375 489.38864 42.09375Q487.32614 42.09375 486.0449 40.765625Q484.76364 39.4375 484.76364 36.953125ZM486.4824 36.953125Q486.4824 38.84375 487.31052 39.78125Q488.13864 40.71875 489.38864 40.71875Q490.63864 40.71875 491.45895 39.773438Q492.27927 38.828125 492.27927 36.890625Q492.27927 35.0625 491.45114 34.125Q490.62302 33.1875 489.38864 33.1875Q488.13864 33.1875 487.31052 34.125Q486.4824 35.0625 486.4824 36.953125ZM495.74802 41.875L495.74802 32.015625L497.24802 32.015625L497.24802 33.515625Q497.82614 32.46875 498.31052 32.132812Q498.7949 31.796875 499.38864 31.796875Q500.2324 31.796875 501.1074 32.34375L500.52927 33.890625Q499.9199 33.53125 499.2949 33.53125Q498.74802 33.53125 498.31833 33.859375Q497.88864 34.1875 497.70114 34.765625Q497.4199 35.65625 497.4199 36.71875L497.4199 41.875L495.74802 41.875Z" fill-rule="nonzero" fill="#000000"></path><path d="M633.6798 250.77524L493.68936 188.70978" fill-rule="evenodd" stroke="#073763" stroke-width="2.0" stroke-linejoin="round" stroke-linecap="butt"></path><path d="M495.02826 185.68982L485.39206 185.03114L492.35043 191.72974Z" fill-rule="evenodd" fill="#073763" stroke="#073763" stroke-width="2.0" stroke-linecap="butt"></path><path d="M482.56442 402.43475L625.44574 326.58127" fill-rule="evenodd" stroke="#073763" stroke-width="2.0" stroke-linejoin="round" stroke-linecap="butt"></path><path d="M626.99475 329.49905L633.4623 322.3254L623.8967 323.66348Z" fill-rule="evenodd" fill="#073763" stroke="#073763" stroke-width="2.0" stroke-linecap="butt"></path><path d="M483.14172 400.65353L483.14172 195.83466" fill-rule="evenodd" stroke="#073763" stroke-width="2.0" stroke-linejoin="round" stroke-linecap="butt"></path><path d="M486.4452 195.83466L483.14172 186.75845L479.83826 195.83466Z" fill-rule="evenodd" fill="#073763" stroke="#073763" stroke-width="2.0" stroke-linecap="butt"></path><path d="M753.88965 151.32115L755.51465 151.1024Q755.57715 152.64928 756.1006 153.2274Q756.624 153.80553 757.5303 153.80553Q758.2178 153.80553 758.70996 153.49303Q759.20215 153.18053 759.38184 152.64928Q759.5615 152.11803 759.5615 150.94615L759.5615 141.58678L761.374 141.58678L761.374 150.8524Q761.374 152.55553 760.95996 153.49303Q760.5459 154.43053 759.64746 154.92271Q758.749 155.4149 757.5459 155.4149Q755.749 155.4149 754.8037 154.38365Q753.8584 153.3524 753.88965 151.32115ZM770.3584 153.96178Q769.4209 154.75865 768.5615 155.07896Q767.70215 155.39928 766.7178 155.39928Q765.1084 155.39928 764.2334 154.61021Q763.3584 153.82115 763.3584 152.58678Q763.3584 151.8524 763.6865 151.25865Q764.01465 150.6649 764.5459 150.30553Q765.07715 149.94615 765.749 149.75865Q766.249 149.61803 767.2334 149.50865Q769.26465 149.25865 770.2178 148.93053Q770.2178 148.58678 770.2178 148.49303Q770.2178 147.4774 769.749 147.05553Q769.1084 146.49303 767.8428 146.49303Q766.6709 146.49303 766.1084 146.89928Q765.5459 147.30553 765.2803 148.36803L763.63965 148.13365Q763.874 147.08678 764.38184 146.44615Q764.88965 145.80553 765.8506 145.45396Q766.8115 145.1024 768.0928 145.1024Q769.3584 145.1024 770.13965 145.39928Q770.9209 145.69615 771.2959 146.14928Q771.6709 146.6024 771.8115 147.2899Q771.9053 147.71178 771.9053 148.82115L771.9053 151.05553Q771.9053 153.38365 772.00684 154.00084Q772.1084 154.61803 772.4365 155.18053L770.6865 155.18053Q770.4209 154.6649 770.3584 153.96178ZM770.2178 150.24303Q769.3115 150.6024 767.4834 150.86803Q766.45215 151.00865 766.0303 151.19615Q765.6084 151.38365 765.374 151.74303Q765.13965 152.1024 765.13965 152.5399Q765.13965 153.21178 765.64746 153.65709Q766.1553 154.1024 767.124 154.1024Q768.0928 154.1024 768.8428 153.67271Q769.5928 153.24303 769.95215 152.52428Q770.2178 151.94615 770.2178 150.8524L770.2178 150.24303ZM777.0303 155.18053L773.2803 145.32115L775.0459 145.32115L777.1709 151.2274Q777.51465 152.18053 777.7959 153.21178Q778.01465 152.43053 778.4209 151.33678L780.6084 145.32115L782.32715 145.32115L778.5928 155.18053L777.0303 155.18053ZM790.0615 153.96178Q789.124 154.75865 788.26465 155.07896Q787.4053 155.39928 786.4209 155.39928Q784.8115 155.39928 783.9365 154.61021Q783.0615 153.82115 783.0615 152.58678Q783.0615 151.8524 783.38965 151.25865Q783.7178 150.6649 784.249 150.30553Q784.7803 149.94615 785.45215 149.75865Q785.95215 149.61803 786.9365 149.50865Q788.9678 149.25865 789.9209 148.93053Q789.9209 148.58678 789.9209 148.49303Q789.9209 147.4774 789.45215 147.05553Q788.8115 146.49303 787.5459 146.49303Q786.374 146.49303 785.8115 146.89928Q785.249 147.30553 784.9834 148.36803L783.3428 148.13365Q783.57715 147.08678 784.08496 146.44615Q784.5928 145.80553 785.5537 145.45396Q786.51465 145.1024 787.7959 145.1024Q789.0615 145.1024 789.8428 145.39928Q790.624 145.69615 790.999 146.14928Q791.374 146.6024 791.51465 147.2899Q791.6084 147.71178 791.6084 148.82115L791.6084 151.05553Q791.6084 153.38365 791.70996 154.00084Q791.8115 154.61803 792.13965 155.18053L790.38965 155.18053Q790.124 154.6649 790.0615 153.96178ZM789.9209 150.24303Q789.01465 150.6024 787.1865 150.86803Q786.1553 151.00865 785.7334 151.19615Q785.3115 151.38365 785.07715 151.74303Q784.8428 152.1024 784.8428 152.5399Q784.8428 153.21178 785.3506 153.65709Q785.8584 154.1024 786.82715 154.1024Q787.7959 154.1024 788.5459 153.67271Q789.2959 153.24303 789.6553 152.52428Q789.9209 151.94615 789.9209 150.8524L789.9209 150.24303Z" fill-rule="nonzero" fill="#000000"></path><path d="M753.88965 288.1243L755.51465 287.90555Q755.57715 289.45242 756.1006 290.03055Q756.624 290.60867 757.5303 290.60867Q758.2178 290.60867 758.70996 290.29617Q759.20215 289.98367 759.38184 289.45242Q759.5615 288.92117 759.5615 287.7493L759.5615 278.38992L761.374 278.38992L761.374 287.65555Q761.374 289.35867 760.95996 290.29617Q760.5459 291.23367 759.64746 291.72586Q758.749 292.21805 757.5459 292.21805Q755.749 292.21805 754.8037 291.1868Q753.8584 290.15555 753.88965 288.1243ZM770.3584 290.76492Q769.4209 291.5618 768.5615 291.8821Q767.70215 292.20242 766.7178 292.20242Q765.1084 292.20242 764.2334 291.41336Q763.3584 290.6243 763.3584 289.38992Q763.3584 288.65555 763.6865 288.0618Q764.01465 287.46805 764.5459 287.10867Q765.07715 286.7493 765.749 286.5618Q766.249 286.42117 767.2334 286.3118Q769.26465 286.0618 770.2178 285.73367Q770.2178 285.38992 770.2178 285.29617Q770.2178 284.28055 769.749 283.85867Q769.1084 283.29617 767.8428 283.29617Q766.6709 283.29617 766.1084 283.70242Q765.5459 284.10867 765.2803 285.17117L763.63965 284.9368Q763.874 283.88992 764.38184 283.2493Q764.88965 282.60867 765.8506 282.2571Q766.8115 281.90555 768.0928 281.90555Q769.3584 281.90555 770.13965 282.20242Q770.9209 282.4993 771.2959 282.95242Q771.6709 283.40555 771.8115 284.09305Q771.9053 284.51492 771.9053 285.6243L771.9053 287.85867Q771.9053 290.1868 772.00684 290.804Q772.1084 291.42117 772.4365 291.98367L770.6865 291.98367Q770.4209 291.46805 770.3584 290.76492ZM770.2178 287.04617Q769.3115 287.40555 767.4834 287.67117Q766.45215 287.8118 766.0303 287.9993Q765.6084 288.1868 765.374 288.54617Q765.13965 288.90555 765.13965 289.34305Q765.13965 290.01492 765.64746 290.46024Q766.1553 290.90555 767.124 290.90555Q768.0928 290.90555 768.8428 290.47586Q769.5928 290.04617 769.95215 289.32742Q770.2178 288.7493 770.2178 287.65555L770.2178 287.04617ZM777.0303 291.98367L773.2803 282.1243L775.0459 282.1243L777.1709 288.03055Q777.51465 288.98367 777.7959 290.01492Q778.01465 289.23367 778.4209 288.13992L780.6084 282.1243L782.32715 282.1243L778.5928 291.98367L777.0303 291.98367ZM790.0615 290.76492Q789.124 291.5618 788.26465 291.8821Q787.4053 292.20242 786.4209 292.20242Q784.8115 292.20242 783.9365 291.41336Q783.0615 290.6243 783.0615 289.38992Q783.0615 288.65555 783.38965 288.0618Q783.7178 287.46805 784.249 287.10867Q784.7803 286.7493 785.45215 286.5618Q785.95215 286.42117 786.9365 286.3118Q788.9678 286.0618 789.9209 285.73367Q789.9209 285.38992 789.9209 285.29617Q789.9209 284.28055 789.45215 283.85867Q788.8115 283.29617 787.5459 283.29617Q786.374 283.29617 785.8115 283.70242Q785.249 284.10867 784.9834 285.17117L783.3428 284.9368Q783.57715 283.88992 784.08496 283.2493Q784.5928 282.60867 785.5537 282.2571Q786.51465 281.90555 787.7959 281.90555Q789.0615 281.90555 789.8428 282.20242Q790.624 282.4993 790.999 282.95242Q791.374 283.40555 791.51465 284.09305Q791.6084 284.51492 791.6084 285.6243L791.6084 287.85867Q791.6084 290.1868 791.70996 290.804Q791.8115 291.42117 792.13965 291.98367L790.38965 291.98367Q790.124 291.46805 790.0615 290.76492ZM789.9209 287.04617Q789.01465 287.40555 787.1865 287.67117Q786.1553 287.8118 785.7334 287.9993Q785.3115 288.1868 785.07715 288.54617Q784.8428 288.90555 784.8428 289.34305Q784.8428 290.01492 785.3506 290.46024Q785.8584 290.90555 786.82715 290.90555Q787.7959 290.90555 788.5459 290.47586Q789.2959 290.04617 789.6553 289.32742Q789.9209 288.7493 789.9209 287.65555L789.9209 287.04617Z" fill-rule="nonzero" fill="#000000"></path><path d="M753.88965 440.55737L755.51465 440.33862Q755.57715 441.8855 756.1006 442.46362Q756.624 443.04175 757.5303 443.04175Q758.2178 443.04175 758.70996 442.72925Q759.20215 442.41675 759.38184 441.8855Q759.5615 441.35425 759.5615 440.18237L759.5615 430.823L761.374 430.823L761.374 440.08862Q761.374 441.79175 760.95996 442.72925Q760.5459 443.66675 759.64746 444.15894Q758.749 444.65112 757.5459 444.65112Q755.749 444.65112 754.8037 443.61987Q753.8584 442.58862 753.88965 440.55737ZM770.3584 443.198Q769.4209 443.99487 768.5615 444.3152Q767.70215 444.6355 766.7178 444.6355Q765.1084 444.6355 764.2334 443.84644Q763.3584 443.05737 763.3584 441.823Q763.3584 441.08862 763.6865 440.49487Q764.01465 439.90112 764.5459 439.54175Q765.07715 439.18237 765.749 438.99487Q766.249 438.85425 767.2334 438.74487Q769.26465 438.49487 770.2178 438.16675Q770.2178 437.823 770.2178 437.72925Q770.2178 436.71362 769.749 436.29175Q769.1084 435.72925 767.8428 435.72925Q766.6709 435.72925 766.1084 436.1355Q765.5459 436.54175 765.2803 437.60425L763.63965 437.36987Q763.874 436.323 764.38184 435.68237Q764.88965 435.04175 765.8506 434.6902Q766.8115 434.33862 768.0928 434.33862Q769.3584 434.33862 770.13965 434.6355Q770.9209 434.93237 771.2959 435.3855Q771.6709 435.83862 771.8115 436.52612Q771.9053 436.948 771.9053 438.05737L771.9053 440.29175Q771.9053 442.61987 772.00684 443.23706Q772.1084 443.85425 772.4365 444.41675L770.6865 444.41675Q770.4209 443.90112 770.3584 443.198ZM770.2178 439.47925Q769.3115 439.83862 767.4834 440.10425Q766.45215 440.24487 766.0303 440.43237Q765.6084 440.61987 765.374 440.97925Q765.13965 441.33862 765.13965 441.77612Q765.13965 442.448 765.64746 442.8933Q766.1553 443.33862 767.124 443.33862Q768.0928 443.33862 768.8428 442.90894Q769.5928 442.47925 769.95215 441.7605Q770.2178 441.18237 770.2178 440.08862L770.2178 439.47925ZM777.0303 444.41675L773.2803 434.55737L775.0459 434.55737L777.1709 440.46362Q777.51465 441.41675 777.7959 442.448Q778.01465 441.66675 778.4209 440.573L780.6084 434.55737L782.32715 434.55737L778.5928 444.41675L777.0303 444.41675ZM790.0615 443.198Q789.124 443.99487 788.26465 444.3152Q787.4053 444.6355 786.4209 444.6355Q784.8115 444.6355 783.9365 443.84644Q783.0615 443.05737 783.0615 441.823Q783.0615 441.08862 783.38965 440.49487Q783.7178 439.90112 784.249 439.54175Q784.7803 439.18237 785.45215 438.99487Q785.95215 438.85425 786.9365 438.74487Q788.9678 438.49487 789.9209 438.16675Q789.9209 437.823 789.9209 437.72925Q789.9209 436.71362 789.45215 436.29175Q788.8115 435.72925 787.5459 435.72925Q786.374 435.72925 785.8115 436.1355Q785.249 436.54175 784.9834 437.60425L783.3428 437.36987Q783.57715 436.323 784.08496 435.68237Q784.5928 435.04175 785.5537 434.6902Q786.51465 434.33862 787.7959 434.33862Q789.0615 434.33862 789.8428 434.6355Q790.624 434.93237 790.999 435.3855Q791.374 435.83862 791.51465 436.52612Q791.6084 436.948 791.6084 438.05737L791.6084 440.29175Q791.6084 442.61987 791.70996 443.23706Q791.8115 443.85425 792.13965 444.41675L790.38965 444.41675Q790.124 443.90112 790.0615 443.198ZM789.9209 439.47925Q789.01465 439.83862 787.1865 440.10425Q786.1553 440.24487 785.7334 440.43237Q785.3115 440.61987 785.07715 440.97925Q784.8428 441.33862 784.8428 441.77612Q784.8428 442.448 785.3506 442.8933Q785.8584 443.33862 786.82715 443.33862Q787.7959 443.33862 788.5459 442.90894Q789.2959 442.47925 789.6553 441.7605Q789.9209 441.18237 789.9209 440.08862L789.9209 439.47925Z" fill-rule="nonzero" fill="#000000"></path><path d="M332.1811 250.77524L472.17154 188.70978" fill-rule="evenodd" stroke="#073763" stroke-width="2.0" stroke-linejoin="round" stroke-linecap="butt"></path><path d="M473.51047 191.72974L480.46884 185.03114L470.83264 185.68982Z" fill-rule="evenodd" fill="#073763" stroke="#073763" stroke-width="2.0" stroke-linecap="butt"></path><path d="M484.40158 402.43475L341.52026 326.58127" fill-rule="evenodd" stroke="#073763" stroke-width="2.0" stroke-linejoin="round" stroke-linecap="butt"></path><path d="M343.06927 323.66348L333.50372 322.3254L339.97125 329.49905Z" fill-rule="evenodd" fill="#073763" stroke="#073763" stroke-width="2.0" stroke-linecap="butt"></path><path d="M753.88965 38.01144L755.51465 37.79269Q755.57715 39.339565 756.1006 39.91769Q756.624 40.495815 757.5303 40.495815Q758.2178 40.495815 758.70996 40.183315Q759.20215 39.870815 759.38184 39.339565Q759.5615 38.808315 759.5615 37.63644L759.5615 28.277067L761.374 28.277067L761.374 37.54269Q761.374 39.245815 760.95996 40.183315Q760.5459 41.120815 759.64746 41.613003Q758.749 42.10519 757.5459 42.10519Q755.749 42.10519 754.8037 41.07394Q753.8584 40.04269 753.88965 38.01144ZM770.3584 40.652065Q769.4209 41.44894 768.5615 41.769253Q767.70215 42.089565 766.7178 42.089565Q765.1084 42.089565 764.2334 41.300503Q763.3584 40.51144 763.3584 39.277065Q763.3584 38.54269 763.6865 37.94894Q764.01465 37.35519 764.5459 36.995815Q765.07715 36.63644 765.749 36.44894Q766.249 36.308315 767.2334 36.19894Q769.26465 35.94894 770.2178 35.620815Q770.2178 35.277065 770.2178 35.183315Q770.2178 34.16769 769.749 33.745815Q769.1084 33.183315 767.8428 33.183315Q766.6709 33.183315 766.1084 33.589565Q765.5459 33.995815 765.2803 35.058315L763.63965 34.82394Q763.874 33.777065 764.38184 33.13644Q764.88965 32.495815 765.8506 32.144253Q766.8115 31.792692 768.0928 31.792692Q769.3584 31.792692 770.13965 32.089565Q770.9209 32.38644 771.2959 32.839565Q771.6709 33.29269 771.8115 33.98019Q771.9053 34.402065 771.9053 35.51144L771.9053 37.745815Q771.9053 40.07394 772.00684 40.691128Q772.1084 41.308315 772.4365 41.870815L770.6865 41.870815Q770.4209 41.35519 770.3584 40.652065ZM770.2178 36.933315Q769.3115 37.29269 767.4834 37.558315Q766.45215 37.69894 766.0303 37.88644Q765.6084 38.07394 765.374 38.433315Q765.13965 38.79269 765.13965 39.23019Q765.13965 39.902065 765.64746 40.347378Q766.1553 40.79269 767.124 40.79269Q768.0928 40.79269 768.8428 40.363003Q769.5928 39.933315 769.95215 39.214565Q770.2178 38.63644 770.2178 37.54269L770.2178 36.933315ZM777.0303 41.870815L773.2803 32.01144L775.0459 32.01144L777.1709 37.91769Q777.51465 38.870815 777.7959 39.902065Q778.01465 39.120815 778.4209 38.027065L780.6084 32.01144L782.32715 32.01144L778.5928 41.870815L777.0303 41.870815ZM790.0615 40.652065Q789.124 41.44894 788.26465 41.769253Q787.4053 42.089565 786.4209 42.089565Q784.8115 42.089565 783.9365 41.300503Q783.0615 40.51144 783.0615 39.277065Q783.0615 38.54269 783.38965 37.94894Q783.7178 37.35519 784.249 36.995815Q784.7803 36.63644 785.45215 36.44894Q785.95215 36.308315 786.9365 36.19894Q788.9678 35.94894 789.9209 35.620815Q789.9209 35.277065 789.9209 35.183315Q789.9209 34.16769 789.45215 33.745815Q788.8115 33.183315 787.5459 33.183315Q786.374 33.183315 785.8115 33.589565Q785.249 33.995815 784.9834 35.058315L783.3428 34.82394Q783.57715 33.777065 784.08496 33.13644Q784.5928 32.495815 785.5537 32.144253Q786.51465 31.792692 787.7959 31.792692Q789.0615 31.792692 789.8428 32.089565Q790.624 32.38644 790.999 32.839565Q791.374 33.29269 791.51465 33.98019Q791.6084 34.402065 791.6084 35.51144L791.6084 37.745815Q791.6084 40.07394 791.70996 40.691128Q791.8115 41.308315 792.13965 41.870815L790.38965 41.870815Q790.124 41.35519 790.0615 40.652065ZM789.9209 36.933315Q789.01465 37.29269 787.1865 37.558315Q786.1553 37.69894 785.7334 37.88644Q785.3115 38.07394 785.07715 38.433315Q784.8428 38.79269 784.8428 39.23019Q784.8428 39.902065 785.3506 40.347378Q785.8584 40.79269 786.82715 40.79269Q787.7959 40.79269 788.5459 40.363003Q789.2959 39.933315 789.6553 39.214565Q789.9209 38.63644 789.9209 37.54269L789.9209 36.933315Z" fill-rule="nonzero" fill="#000000"></path><path d="M63.80081 150.42671L65.59769 150.87984Q65.03519 153.09859 63.566437 154.26265Q62.097687 155.42671 59.972687 155.42671Q57.76956 155.42671 56.39456 154.52827Q55.01956 153.62984 54.30081 151.93452Q53.58206 150.23921 53.58206 148.28609Q53.58206 146.16109 54.38675 144.58296Q55.191437 143.00484 56.691437 142.18452Q58.191437 141.36421 59.98831 141.36421Q62.035187 141.36421 63.42581 142.40327Q64.81644 143.44234 65.36331 145.31734L63.597687 145.73921Q63.128937 144.25484 62.222687 143.57515Q61.316437 142.89546 59.95706 142.89546Q58.39456 142.89546 57.339874 143.64546Q56.285187 144.39546 55.8555 145.6689Q55.42581 146.94234 55.42581 148.28609Q55.42581 150.02046 55.933624 151.30952Q56.441437 152.59859 57.51175 153.23921Q58.58206 153.87984 59.816437 153.87984Q61.33206 153.87984 62.378937 153.01265Q63.42581 152.14546 63.80081 150.42671ZM66.72269 150.27046Q66.72269 147.53609 68.25394 146.20796Q69.51956 145.11421 71.34769 145.11421Q73.37894 145.11421 74.668 146.45015Q75.95706 147.78609 75.95706 150.12984Q75.95706 152.03609 75.38675 153.12202Q74.81644 154.20796 73.7305 154.80952Q72.64456 155.41109 71.34769 155.41109Q69.28519 155.41109 68.00394 154.08296Q66.72269 152.75484 66.72269 150.27046ZM68.44144 150.27046Q68.44144 152.16109 69.26956 153.09859Q70.09769 154.03609 71.34769 154.03609Q72.59769 154.03609 73.418 153.09077Q74.23831 152.14546 74.23831 150.20796Q74.23831 148.37984 73.41019 147.44234Q72.58206 146.50484 71.34769 146.50484Q70.09769 146.50484 69.26956 147.44234Q68.44144 148.37984 68.44144 150.27046ZM77.70706 155.19234L77.70706 145.33296L79.20706 145.33296L79.20706 146.83296Q79.78519 145.78609 80.26956 145.45015Q80.75394 145.11421 81.34769 145.11421Q82.19144 145.11421 83.06644 145.66109L82.48831 147.20796Q81.87894 146.84859 81.25394 146.84859Q80.70706 146.84859 80.277374 147.17671Q79.84769 147.50484 79.66019 148.08296Q79.37894 148.97359 79.37894 150.03609L79.37894 155.19234L77.70706 155.19234ZM90.69144 152.02046L92.41019 152.23921Q92.00394 153.73921 90.902374 154.57515Q89.80081 155.41109 88.08206 155.41109Q85.92581 155.41109 84.66019 154.08296Q83.39456 152.75484 83.39456 150.34859Q83.39456 147.86421 84.668 146.48921Q85.94144 145.11421 87.98831 145.11421Q89.97269 145.11421 91.22269 146.45796Q92.47269 147.80171 92.47269 150.25484Q92.47269 150.39546 92.45706 150.69234L85.11331 150.69234Q85.20706 152.31734 86.03519 153.17671Q86.86331 154.03609 88.09769 154.03609Q89.00394 154.03609 89.652374 153.55952Q90.30081 153.08296 90.69144 152.02046ZM85.20706 149.31734L90.70706 149.31734Q90.59769 148.08296 90.08206 147.45796Q89.28519 146.48921 88.00394 146.48921Q86.86331 146.48921 86.07425 147.26265Q85.28519 148.03609 85.20706 149.31734ZM105.92581 151.58296L107.56644 151.80171Q107.30081 153.48921 106.19144 154.45015Q105.08206 155.41109 103.45706 155.41109Q101.44144 155.41109 100.214874 154.09077Q98.98831 152.77046 98.98831 150.30171Q98.98831 148.70796 99.51175 147.51265Q100.03519 146.31734 101.121124 145.71577Q102.20706 145.11421 103.47269 145.11421Q105.08206 145.11421 106.09769 145.92671Q107.11331 146.73921 107.41019 148.23921L105.78519 148.48921Q105.55081 147.48921 104.95706 146.98921Q104.36331 146.48921 103.53519 146.48921Q102.26956 146.48921 101.4805 147.39546Q100.69144 148.30171 100.69144 150.25484Q100.69144 152.23921 101.45706 153.13765Q102.22269 154.03609 103.44144 154.03609Q104.42581 154.03609 105.08206 153.43452Q105.73831 152.83296 105.92581 151.58296ZM108.19144 150.27046Q108.19144 147.53609 109.72269 146.20796Q110.98831 145.11421 112.81644 145.11421Q114.84769 145.11421 116.13675 146.45015Q117.42581 147.78609 117.42581 150.12984Q117.42581 152.03609 116.8555 153.12202Q116.28519 154.20796 115.19925 154.80952Q114.11331 155.41109 112.81644 155.41109Q110.75394 155.41109 109.47269 154.08296Q108.19144 152.75484 108.19144 150.27046ZM109.91019 150.27046Q109.91019 152.16109 110.73831 153.09859Q111.56644 154.03609 112.81644 154.03609Q114.06644 154.03609 114.88675 153.09077Q115.70706 152.14546 115.70706 150.20796Q115.70706 148.37984 114.87894 147.44234Q114.05081 146.50484 112.81644 146.50484Q111.56644 146.50484 110.73831 147.44234Q109.91019 148.37984 109.91019 150.27046ZM119.19144 155.19234L119.19144 145.33296L120.69144 145.33296L120.69144 146.72359Q121.14456 146.00484 121.918 145.55952Q122.69144 145.11421 123.67581 145.11421Q124.76956 145.11421 125.47269 145.56734Q126.17581 146.02046 126.45706 146.84859Q127.62894 145.11421 129.50394 145.11421Q130.97269 145.11421 131.76175 145.92671Q132.55081 146.73921 132.55081 148.42671L132.55081 155.19234L130.87894 155.19234L130.87894 148.98921Q130.87894 147.98921 130.72269 147.5439Q130.56644 147.09859 130.13675 146.83296Q129.70706 146.56734 129.12894 146.56734Q128.09769 146.56734 127.41019 147.25484Q126.72269 147.94234 126.72269 149.47359L126.72269 155.19234L125.05081 155.19234L125.05081 148.78609Q125.05081 147.67671 124.64456 147.12202Q124.23831 146.56734 123.30081 146.56734Q122.59769 146.56734 121.996124 146.93452Q121.39456 147.30171 121.12894 148.02046Q120.86331 148.73921 120.86331 150.08296L120.86331 155.19234L119.19144 155.19234ZM134.73831 158.97359L134.73831 145.33296L136.26956 145.33296L136.26956 146.61421Q136.80081 145.86421 137.4805 145.48921Q138.16019 145.11421 139.11331 145.11421Q140.37894 145.11421 141.34769 145.76265Q142.31644 146.41109 142.80862 147.59859Q143.30081 148.78609 143.30081 150.19234Q143.30081 151.70796 142.75394 152.9189Q142.20706 154.12984 141.17581 154.77046Q140.14456 155.41109 139.00394 155.41109Q138.16019 155.41109 137.49612 155.05952Q136.83206 154.70796 136.41019 154.17671L136.41019 158.97359L134.73831 158.97359ZM136.25394 150.31734Q136.25394 152.22359 137.02737 153.12984Q137.80081 154.03609 138.89456 154.03609Q140.00394 154.03609 140.793 153.09859Q141.58206 152.16109 141.58206 150.17671Q141.58206 148.30171 140.80862 147.36421Q140.03519 146.42671 138.95706 146.42671Q137.89456 146.42671 137.07425 147.42671Q136.25394 148.42671 136.25394 150.31734ZM144.48831 150.27046Q144.48831 147.53609 146.01956 146.20796Q147.28519 145.11421 149.11331 145.11421Q151.14456 145.11421 152.43362 146.45015Q153.72269 147.78609 153.72269 150.12984Q153.72269 152.03609 153.15237 153.12202Q152.58206 154.20796 151.49612 154.80952Q150.41019 155.41109 149.11331 155.41109Q147.05081 155.41109 145.76956 154.08296Q144.48831 152.75484 144.48831 150.27046ZM146.20706 150.27046Q146.20706 152.16109 147.03519 153.09859Q147.86331 154.03609 149.11331 154.03609Q150.36331 154.03609 151.18362 153.09077Q152.00394 152.14546 152.00394 150.20796Q152.00394 148.37984 151.17581 147.44234Q150.34769 146.50484 149.11331 146.50484Q147.86331 146.50484 147.03519 147.44234Q146.20706 148.37984 146.20706 150.27046ZM155.48831 155.19234L155.48831 145.33296L156.98831 145.33296L156.98831 146.73921Q158.08206 145.11421 160.12894 145.11421Q161.01956 145.11421 161.76956 145.43452Q162.51956 145.75484 162.88675 146.27827Q163.25394 146.80171 163.41019 147.50484Q163.50394 147.97359 163.50394 149.12984L163.50394 155.19234L161.83206 155.19234L161.83206 149.19234Q161.83206 148.17671 161.63675 147.6689Q161.44144 147.16109 160.94144 146.86421Q160.44144 146.56734 159.76956 146.56734Q158.70706 146.56734 157.93362 147.23921Q157.16019 147.91109 157.16019 149.81734L157.16019 155.19234L155.48831 155.19234ZM172.61331 152.02046L174.33206 152.23921Q173.92581 153.73921 172.82425 154.57515Q171.72269 155.41109 170.00394 155.41109Q167.84769 155.41109 166.58206 154.08296Q165.31644 152.75484 165.31644 150.34859Q165.31644 147.86421 166.58987 146.48921Q167.86331 145.11421 169.91019 145.11421Q171.89456 145.11421 173.14456 146.45796Q174.39456 147.80171 174.39456 150.25484Q174.39456 150.39546 174.37894 150.69234L167.03519 150.69234Q167.12894 152.31734 167.95706 153.17671Q168.78519 154.03609 170.01956 154.03609Q170.92581 154.03609 171.57425 153.55952Q172.22269 153.08296 172.61331 152.02046ZM167.12894 149.31734L172.62894 149.31734Q172.51956 148.08296 172.00394 147.45796Q171.20706 146.48921 169.92581 146.48921Q168.78519 146.48921 167.99612 147.26265Q167.20706 148.03609 167.12894 149.31734ZM176.23831 155.19234L176.23831 145.33296L177.73831 145.33296L177.73831 146.73921Q178.83206 145.11421 180.87894 145.11421Q181.76956 145.11421 182.51956 145.43452Q183.26956 145.75484 183.63675 146.27827Q184.00394 146.80171 184.16019 147.50484Q184.25394 147.97359 184.25394 149.12984L184.25394 155.19234L182.58206 155.19234L182.58206 149.19234Q182.58206 148.17671 182.38675 147.6689Q182.19144 147.16109 181.69144 146.86421Q181.19144 146.56734 180.51956 146.56734Q179.45706 146.56734 178.68362 147.23921Q177.91019 147.91109 177.91019 149.81734L177.91019 155.19234L176.23831 155.19234ZM190.26956 153.69234L190.50394 155.17671Q189.80081 155.31734 189.23831 155.31734Q188.33206 155.31734 187.83206 155.02827Q187.33206 154.73921 187.12894 154.27827Q186.92581 153.81734 186.92581 152.30171L186.92581 146.64546L185.69144 146.64546L185.69144 145.33296L186.92581 145.33296L186.92581 142.89546L188.58206 141.89546L188.58206 145.33296L190.26956 145.33296L190.26956 146.64546L188.58206 146.64546L188.58206 152.39546Q188.58206 153.11421 188.668 153.31734Q188.75394 153.52046 188.95706 153.64546Q189.16019 153.77046 189.53519 153.77046Q189.80081 153.77046 190.26956 153.69234ZM191.12894 152.25484L192.78519 151.98921Q192.92581 152.98921 193.55862 153.51265Q194.19144 154.03609 195.33206 154.03609Q196.48831 154.03609 197.043 153.56734Q197.59769 153.09859 197.59769 152.47359Q197.59769 151.91109 197.11331 151.58296Q196.76956 151.36421 195.41019 151.02046Q193.56644 150.55171 192.8555 150.21577Q192.14456 149.87984 191.77737 149.27827Q191.41019 148.67671 191.41019 147.95796Q191.41019 147.30171 191.71487 146.73921Q192.01956 146.17671 192.53519 145.80171Q192.92581 145.52046 193.59769 145.31734Q194.26956 145.11421 195.03519 145.11421Q196.20706 145.11421 197.08206 145.45015Q197.95706 145.78609 198.37112 146.3564Q198.78519 146.92671 198.94144 147.87984L197.31644 148.09859Q197.20706 147.34859 196.668 146.9189Q196.12894 146.48921 195.16019 146.48921Q194.00394 146.48921 193.51956 146.87202Q193.03519 147.25484 193.03519 147.75484Q193.03519 148.08296 193.23831 148.34859Q193.44144 148.61421 193.87894 148.78609Q194.12894 148.87984 195.34769 149.22359Q197.11331 149.69234 197.81644 149.98921Q198.51956 150.28609 198.918 150.86421Q199.31644 151.44234 199.31644 152.30171Q199.31644 153.12984 198.83206 153.87202Q198.34769 154.61421 197.42581 155.01265Q196.50394 155.41109 195.34769 155.41109Q193.42581 155.41109 192.418 154.61421Q191.41019 153.81734 191.12894 152.25484Z" fill-rule="nonzero" fill="#000000"></path><path d="M48.48831 267.90173L50.285187 267.90173L50.285187 275.74548Q50.285187 277.80798 49.82425 279.0111Q49.36331 280.21423 48.152374 280.97205Q46.941437 281.72986 44.972687 281.72986Q43.066437 281.72986 41.847687 281.0736Q40.628937 280.41736 40.11331 279.16736Q39.597687 277.91736 39.597687 275.74548L39.597687 267.90173L41.39456 267.90173L41.39456 275.74548Q41.39456 277.5111 41.722687 278.35486Q42.05081 279.1986 42.8555 279.65173Q43.660187 280.10486 44.816437 280.10486Q46.80081 280.10486 47.64456 279.20642Q48.48831 278.30798 48.48831 275.74548L48.48831 267.90173ZM52.14456 278.55798L53.80081 278.29236Q53.941437 279.29236 54.57425 279.8158Q55.20706 280.33923 56.347687 280.33923Q57.503937 280.33923 58.058624 279.87048Q58.61331 279.40173 58.61331 278.77673Q58.61331 278.21423 58.128937 277.8861Q57.785187 277.66736 56.42581 277.3236Q54.58206 276.85486 53.871124 276.51892Q53.160187 276.18298 52.793 275.58142Q52.42581 274.97986 52.42581 274.2611Q52.42581 273.60486 52.7305 273.04236Q53.035187 272.47986 53.55081 272.10486Q53.941437 271.8236 54.61331 271.62048Q55.285187 271.41736 56.05081 271.41736Q57.222687 271.41736 58.097687 271.7533Q58.972687 272.08923 59.38675 272.65955Q59.80081 273.22986 59.95706 274.18298L58.33206 274.40173Q58.222687 273.65173 57.683624 273.22205Q57.14456 272.79236 56.17581 272.79236Q55.01956 272.79236 54.535187 273.17517Q54.05081 273.55798 54.05081 274.05798Q54.05081 274.3861 54.253937 274.65173Q54.45706 274.91736 54.89456 275.08923Q55.14456 275.18298 56.36331 275.52673Q58.128937 275.99548 58.83206 276.29236Q59.535187 276.58923 59.933624 277.16736Q60.33206 277.74548 60.33206 278.60486Q60.33206 279.43298 59.847687 280.17517Q59.36331 280.91736 58.441437 281.3158Q57.51956 281.71423 56.36331 281.71423Q54.441437 281.71423 53.433624 280.91736Q52.42581 280.12048 52.14456 278.55798ZM68.89456 278.3236L70.61331 278.54236Q70.20706 280.04236 69.1055 280.8783Q68.00394 281.71423 66.28519 281.71423Q64.12894 281.71423 62.86331 280.3861Q61.597687 279.05798 61.597687 276.65173Q61.597687 274.16736 62.871124 272.79236Q64.14456 271.41736 66.19144 271.41736Q68.17581 271.41736 69.42581 272.7611Q70.67581 274.10486 70.67581 276.55798Q70.67581 276.6986 70.66019 276.99548L63.316437 276.99548Q63.410187 278.62048 64.23831 279.47986Q65.06644 280.33923 66.30081 280.33923Q67.20706 280.33923 67.8555 279.86267Q68.50394 279.3861 68.89456 278.3236ZM63.410187 275.62048L68.91019 275.62048Q68.80081 274.3861 68.28519 273.7611Q67.48831 272.79236 66.20706 272.79236Q65.06644 272.79236 64.277374 273.5658Q63.48831 274.33923 63.410187 275.62048ZM72.50394 281.49548L72.50394 271.6361L74.00394 271.6361L74.00394 273.1361Q74.58206 272.08923 75.06644 271.7533Q75.55081 271.41736 76.14456 271.41736Q76.98831 271.41736 77.86331 271.96423L77.28519 273.5111Q76.67581 273.15173 76.05081 273.15173Q75.50394 273.15173 75.07425 273.47986Q74.64456 273.80798 74.45706 274.3861Q74.17581 275.27673 74.17581 276.33923L74.17581 281.49548L72.50394 281.49548ZM83.94144 269.80798L83.94144 267.90173L85.61331 267.90173L85.61331 269.80798L83.94144 269.80798ZM83.94144 281.49548L83.94144 271.6361L85.61331 271.6361L85.61331 281.49548L83.94144 281.49548ZM88.06644 281.49548L88.06644 271.6361L89.56644 271.6361L89.56644 273.04236Q90.66019 271.41736 92.70706 271.41736Q93.59769 271.41736 94.34769 271.73767Q95.09769 272.05798 95.464874 272.58142Q95.83206 273.10486 95.98831 273.80798Q96.08206 274.27673 96.08206 275.43298L96.08206 281.49548L94.41019 281.49548L94.41019 275.49548Q94.41019 274.47986 94.214874 273.97205Q94.01956 273.46423 93.51956 273.16736Q93.01956 272.87048 92.34769 272.87048Q91.28519 272.87048 90.51175 273.54236Q89.73831 274.21423 89.73831 276.12048L89.73831 281.49548L88.06644 281.49548ZM98.44144 285.27673L98.44144 271.6361L99.97269 271.6361L99.97269 272.91736Q100.50394 272.16736 101.183624 271.79236Q101.86331 271.41736 102.81644 271.41736Q104.08206 271.41736 105.05081 272.0658Q106.01956 272.71423 106.51175 273.90173Q107.00394 275.08923 107.00394 276.49548Q107.00394 278.0111 106.45706 279.22205Q105.91019 280.43298 104.87894 281.0736Q103.84769 281.71423 102.70706 281.71423Q101.86331 281.71423 101.19925 281.36267Q100.53519 281.0111 100.11331 280.47986L100.11331 285.27673L98.44144 285.27673ZM99.95706 276.62048Q99.95706 278.52673 100.7305 279.43298Q101.50394 280.33923 102.59769 280.33923Q103.70706 280.33923 104.496124 279.40173Q105.28519 278.46423 105.28519 276.47986Q105.28519 274.60486 104.51175 273.66736Q103.73831 272.72986 102.66019 272.72986Q101.59769 272.72986 100.777374 273.72986Q99.95706 274.72986 99.95706 276.62048ZM115.26956 281.49548L115.26956 280.04236Q114.12894 281.71423 112.14456 281.71423Q111.28519 281.71423 110.527374 281.3783Q109.76956 281.04236 109.402374 280.54236Q109.03519 280.04236 108.87894 279.30798Q108.78519 278.80798 108.78519 277.74548L108.78519 271.6361L110.45706 271.6361L110.45706 277.10486Q110.45706 278.41736 110.55081 278.87048Q110.70706 279.52673 111.22269 279.90173Q111.73831 280.27673 112.48831 280.27673Q113.23831 280.27673 113.89456 279.89392Q114.55081 279.5111 114.82425 278.84705Q115.09769 278.18298 115.09769 276.91736L115.09769 271.6361L116.76956 271.6361L116.76956 281.49548L115.26956 281.49548ZM122.84769 279.99548L123.08206 281.47986Q122.37894 281.62048 121.81644 281.62048Q120.91019 281.62048 120.41019 281.33142Q119.91019 281.04236 119.70706 280.58142Q119.50394 280.12048 119.50394 278.60486L119.50394 272.9486L118.26956 272.9486L118.26956 271.6361L119.50394 271.6361L119.50394 269.1986L121.16019 268.1986L121.16019 271.6361L122.84769 271.6361L122.84769 272.9486L121.16019 272.9486L121.16019 278.6986Q121.16019 279.41736 121.246124 279.62048Q121.33206 279.8236 121.53519 279.9486Q121.73831 280.0736 122.11331 280.0736Q122.37894 280.0736 122.84769 279.99548ZM136.00394 280.27673Q135.06644 281.0736 134.20706 281.39392Q133.34769 281.71423 132.36331 281.71423Q130.75394 281.71423 129.87894 280.92517Q129.00394 280.1361 129.00394 278.90173Q129.00394 278.16736 129.33206 277.5736Q129.66019 276.97986 130.19144 276.62048Q130.72269 276.2611 131.39456 276.0736Q131.89456 275.93298 132.87894 275.8236Q134.91019 275.5736 135.86331 275.24548Q135.86331 274.90173 135.86331 274.80798Q135.86331 273.79236 135.39456 273.37048Q134.75394 272.80798 133.48831 272.80798Q132.31644 272.80798 131.75394 273.21423Q131.19144 273.62048 130.92581 274.68298L129.28519 274.4486Q129.51956 273.40173 130.02737 272.7611Q130.53519 272.12048 131.49612 271.76892Q132.45706 271.41736 133.73831 271.41736Q135.00394 271.41736 135.78519 271.71423Q136.56644 272.0111 136.94144 272.46423Q137.31644 272.91736 137.45706 273.60486Q137.55081 274.02673 137.55081 275.1361L137.55081 277.37048Q137.55081 279.6986 137.65237 280.3158Q137.75394 280.93298 138.08206 281.49548L136.33206 281.49548Q136.06644 280.97986 136.00394 280.27673ZM135.86331 276.55798Q134.95706 276.91736 133.12894 277.18298Q132.09769 277.3236 131.67581 277.5111Q131.25394 277.6986 131.01956 278.05798Q130.78519 278.41736 130.78519 278.85486Q130.78519 279.52673 131.293 279.97205Q131.80081 280.41736 132.76956 280.41736Q133.73831 280.41736 134.48831 279.98767Q135.23831 279.55798 135.59769 278.83923Q135.86331 278.2611 135.86331 277.16736L135.86331 276.55798ZM139.94144 281.49548L139.94144 271.6361L141.44144 271.6361L141.44144 273.04236Q142.53519 271.41736 144.58206 271.41736Q145.47269 271.41736 146.22269 271.73767Q146.97269 272.05798 147.33987 272.58142Q147.70706 273.10486 147.86331 273.80798Q147.95706 274.27673 147.95706 275.43298L147.95706 281.49548L146.28519 281.49548L146.28519 275.49548Q146.28519 274.47986 146.08987 273.97205Q145.89456 273.46423 145.39456 273.16736Q144.89456 272.87048 144.22269 272.87048Q143.16019 272.87048 142.38675 273.54236Q141.61331 274.21423 141.61331 276.12048L141.61331 281.49548L139.94144 281.49548ZM156.70706 281.49548L156.70706 280.24548Q155.76956 281.71423 153.95706 281.71423Q152.78519 281.71423 151.793 281.0658Q150.80081 280.41736 150.26175 279.2533Q149.72269 278.08923 149.72269 276.5736Q149.72269 275.10486 150.21487 273.90173Q150.70706 272.6986 151.68362 272.05798Q152.66019 271.41736 153.87894 271.41736Q154.76956 271.41736 155.46487 271.79236Q156.16019 272.16736 156.59769 272.77673L156.59769 267.90173L158.25394 267.90173L158.25394 281.49548L156.70706 281.49548ZM151.42581 276.5736Q151.42581 278.46423 152.2305 279.40173Q153.03519 280.33923 154.11331 280.33923Q155.20706 280.33923 155.97269 279.4486Q156.73831 278.55798 156.73831 276.71423Q156.73831 274.6986 155.95706 273.7533Q155.17581 272.80798 154.03519 272.80798Q152.92581 272.80798 152.17581 273.71423Q151.42581 274.62048 151.42581 276.5736ZM165.84769 281.49548L165.84769 267.90173L167.51956 267.90173L167.51956 281.49548L165.84769 281.49548ZM176.45706 280.27673Q175.51956 281.0736 174.66019 281.39392Q173.80081 281.71423 172.81644 281.71423Q171.20706 281.71423 170.33206 280.92517Q169.45706 280.1361 169.45706 278.90173Q169.45706 278.16736 169.78519 277.5736Q170.11331 276.97986 170.64456 276.62048Q171.17581 276.2611 171.84769 276.0736Q172.34769 275.93298 173.33206 275.8236Q175.36331 275.5736 176.31644 275.24548Q176.31644 274.90173 176.31644 274.80798Q176.31644 273.79236 175.84769 273.37048Q175.20706 272.80798 173.94144 272.80798Q172.76956 272.80798 172.20706 273.21423Q171.64456 273.62048 171.37894 274.68298L169.73831 274.4486Q169.97269 273.40173 170.4805 272.7611Q170.98831 272.12048 171.94925 271.76892Q172.91019 271.41736 174.19144 271.41736Q175.45706 271.41736 176.23831 271.71423Q177.01956 272.0111 177.39456 272.46423Q177.76956 272.91736 177.91019 273.60486Q178.00394 274.02673 178.00394 275.1361L178.00394 277.37048Q178.00394 279.6986 178.1055 280.3158Q178.20706 280.93298 178.53519 281.49548L176.78519 281.49548Q176.51956 280.97986 176.45706 280.27673ZM176.31644 276.55798Q175.41019 276.91736 173.58206 277.18298Q172.55081 277.3236 172.12894 277.5111Q171.70706 277.6986 171.47269 278.05798Q171.23831 278.41736 171.23831 278.85486Q171.23831 279.52673 171.74612 279.97205Q172.25394 280.41736 173.22269 280.41736Q174.19144 280.41736 174.94144 279.98767Q175.69144 279.55798 176.05081 278.83923Q176.31644 278.2611 176.31644 277.16736L176.31644 276.55798ZM180.31644 285.29236L180.14456 283.72986Q180.69144 283.87048 181.09769 283.87048Q181.64456 283.87048 181.9805 283.68298Q182.31644 283.49548 182.53519 283.16736Q182.69144 282.91736 183.03519 281.91736Q183.08206 281.77673 183.19144 281.5111L179.45706 271.6361L181.25394 271.6361L183.30081 277.35486Q183.70706 278.43298 184.01956 279.6361Q184.30081 278.47986 184.70706 277.3861L186.80081 271.6361L188.47269 271.6361L184.72269 281.66736Q184.12894 283.29236 183.78519 283.90173Q183.34769 284.72986 182.76956 285.11267Q182.19144 285.49548 181.39456 285.49548Q180.91019 285.49548 180.31644 285.29236ZM189.09769 276.5736Q189.09769 273.83923 190.62894 272.5111Q191.89456 271.41736 193.72269 271.41736Q195.75394 271.41736 197.043 272.7533Q198.33206 274.08923 198.33206 276.43298Q198.33206 278.33923 197.76175 279.42517Q197.19144 280.5111 196.1055 281.11267Q195.01956 281.71423 193.72269 281.71423Q191.66019 281.71423 190.37894 280.3861Q189.09769 279.05798 189.09769 276.5736ZM190.81644 276.5736Q190.81644 278.46423 191.64456 279.40173Q192.47269 280.33923 193.72269 280.33923Q194.97269 280.33923 195.793 279.39392Q196.61331 278.4486 196.61331 276.5111Q196.61331 274.68298 195.78519 273.74548Q194.95706 272.80798 193.72269 272.80798Q192.47269 272.80798 191.64456 273.74548Q190.81644 274.68298 190.81644 276.5736ZM206.55081 281.49548L206.55081 280.04236Q205.41019 281.71423 203.42581 281.71423Q202.56644 281.71423 201.80862 281.3783Q201.05081 281.04236 200.68362 280.54236Q200.31644 280.04236 200.16019 279.30798Q200.06644 278.80798 200.06644 277.74548L200.06644 271.6361L201.73831 271.6361L201.73831 277.10486Q201.73831 278.41736 201.83206 278.87048Q201.98831 279.52673 202.50394 279.90173Q203.01956 280.27673 203.76956 280.27673Q204.51956 280.27673 205.17581 279.89392Q205.83206 279.5111 206.1055 278.84705Q206.37894 278.18298 206.37894 276.91736L206.37894 271.6361L208.05081 271.6361L208.05081 281.49548L206.55081 281.49548ZM214.12894 279.99548L214.36331 281.47986Q213.66019 281.62048 213.09769 281.62048Q212.19144 281.62048 211.69144 281.33142Q211.19144 281.04236 210.98831 280.58142Q210.78519 280.12048 210.78519 278.60486L210.78519 272.9486L209.55081 272.9486L209.55081 271.6361L210.78519 271.6361L210.78519 269.1986L212.44144 268.1986L212.44144 271.6361L214.12894 271.6361L214.12894 272.9486L212.44144 272.9486L212.44144 278.6986Q212.44144 279.41736 212.52737 279.62048Q212.61331 279.8236 212.81644 279.9486Q213.01956 280.0736 213.39456 280.0736Q213.66019 280.0736 214.12894 279.99548Z" fill-rule="nonzero" fill="#000000"></path><path d="M108.28519 302.49548L108.28519 288.90173L109.95706 288.90173L109.95706 302.49548L108.28519 302.49548ZM111.83206 297.5736Q111.83206 294.83923 113.36331 293.5111Q114.62894 292.41736 116.45706 292.41736Q118.48831 292.41736 119.777374 293.7533Q121.06644 295.08923 121.06644 297.43298Q121.06644 299.33923 120.496124 300.42517Q119.92581 301.5111 118.839874 302.11267Q117.75394 302.71423 116.45706 302.71423Q114.39456 302.71423 113.11331 301.3861Q111.83206 300.05798 111.83206 297.5736ZM113.55081 297.5736Q113.55081 299.46423 114.37894 300.40173Q115.20706 301.33923 116.45706 301.33923Q117.70706 301.33923 118.527374 300.39392Q119.34769 299.4486 119.34769 297.5111Q119.34769 295.68298 118.51956 294.74548Q117.69144 293.80798 116.45706 293.80798Q115.20706 293.80798 114.37894 294.74548Q113.55081 295.68298 113.55081 297.5736ZM122.53519 303.30798L124.14456 303.55798Q124.25394 304.30798 124.72269 304.65173Q125.33206 305.10486 126.41019 305.10486Q127.58206 305.10486 128.20706 304.64392Q128.83206 304.18298 129.06644 303.35486Q129.19144 302.83923 129.17581 301.1986Q128.08206 302.49548 126.45706 302.49548Q124.42581 302.49548 123.308624 301.02673Q122.19144 299.55798 122.19144 297.5111Q122.19144 296.10486 122.70706 294.90955Q123.22269 293.71423 124.19144 293.0658Q125.16019 292.41736 126.45706 292.41736Q128.20706 292.41736 129.33206 293.8236L129.33206 292.6361L130.87894 292.6361L130.87894 301.15173Q130.87894 303.46423 130.41019 304.42517Q129.94144 305.3861 128.92581 305.9408Q127.91019 306.49548 126.42581 306.49548Q124.66019 306.49548 123.57425 305.6986Q122.48831 304.90173 122.53519 303.30798ZM123.91019 297.3861Q123.91019 299.33923 124.683624 300.22986Q125.45706 301.12048 126.61331 301.12048Q127.75394 301.12048 128.53519 300.22986Q129.31644 299.33923 129.31644 297.4486Q129.31644 295.6361 128.51175 294.72205Q127.70706 293.80798 126.58206 293.80798Q125.47269 293.80798 124.69144 294.70642Q123.91019 295.60486 123.91019 297.3861ZM133.22269 290.80798L133.22269 288.90173L134.89456 288.90173L134.89456 290.80798L133.22269 290.80798ZM133.22269 302.49548L133.22269 292.6361L134.89456 292.6361L134.89456 302.49548L133.22269 302.49548ZM143.80081 298.8861L145.44144 299.10486Q145.17581 300.79236 144.06644 301.7533Q142.95706 302.71423 141.33206 302.71423Q139.31644 302.71423 138.08987 301.39392Q136.86331 300.0736 136.86331 297.60486Q136.86331 296.0111 137.38675 294.8158Q137.91019 293.62048 138.99612 293.01892Q140.08206 292.41736 141.34769 292.41736Q142.95706 292.41736 143.97269 293.22986Q144.98831 294.04236 145.28519 295.54236L143.66019 295.79236Q143.42581 294.79236 142.83206 294.29236Q142.23831 293.79236 141.41019 293.79236Q140.14456 293.79236 139.3555 294.6986Q138.56644 295.60486 138.56644 297.55798Q138.56644 299.54236 139.33206 300.4408Q140.09769 301.33923 141.31644 301.33923Q142.30081 301.33923 142.95706 300.73767Q143.61331 300.1361 143.80081 298.8861Z" fill-rule="nonzero" fill="#000000"></path><path d="M57.503937 433.92856L53.89456 420.3348L55.73831 420.3348L57.80081 429.24106Q58.14456 430.6473 58.378937 432.0223Q58.89456 429.85043 58.98831 429.50668L61.58206 420.3348L63.753937 420.3348L65.70706 427.2098Q66.44144 429.7723 66.75394 432.0223Q67.01956 430.74106 67.44144 429.06918L69.56644 420.3348L71.37894 420.3348L67.64456 433.92856L65.91019 433.92856L63.05081 423.56918Q62.691437 422.2723 62.628937 421.97543Q62.410187 422.91293 62.222687 423.56918L59.33206 433.92856L57.503937 433.92856ZM72.53519 422.24106L72.53519 420.3348L74.20706 420.3348L74.20706 422.24106L72.53519 422.24106ZM72.53519 433.92856L72.53519 424.06918L74.20706 424.06918L74.20706 433.92856L72.53519 433.92856ZM76.67581 433.92856L76.67581 424.06918L78.17581 424.06918L78.17581 425.47543Q79.26956 423.85043 81.31644 423.85043Q82.20706 423.85043 82.95706 424.17075Q83.70706 424.49106 84.07425 425.0145Q84.44144 425.53793 84.59769 426.24106Q84.69144 426.7098 84.69144 427.86606L84.69144 433.92856L83.01956 433.92856L83.01956 427.92856Q83.01956 426.91293 82.82425 426.40512Q82.62894 425.8973 82.12894 425.60043Q81.62894 425.30356 80.95706 425.30356Q79.89456 425.30356 79.121124 425.97543Q78.34769 426.6473 78.34769 428.55356L78.34769 433.92856L76.67581 433.92856ZM93.44144 433.92856L93.44144 432.67856Q92.50394 434.1473 90.69144 434.1473Q89.51956 434.1473 88.527374 433.49887Q87.53519 432.85043 86.996124 431.68637Q86.45706 430.5223 86.45706 429.00668Q86.45706 427.53793 86.94925 426.3348Q87.44144 425.13168 88.418 424.49106Q89.39456 423.85043 90.61331 423.85043Q91.50394 423.85043 92.19925 424.22543Q92.89456 424.60043 93.33206 425.2098L93.33206 420.3348L94.98831 420.3348L94.98831 433.92856L93.44144 433.92856ZM88.16019 429.00668Q88.16019 430.8973 88.964874 431.8348Q89.76956 432.7723 90.84769 432.7723Q91.94144 432.7723 92.70706 431.88168Q93.47269 430.99106 93.47269 429.1473Q93.47269 427.13168 92.69144 426.18637Q91.91019 425.24106 90.76956 425.24106Q89.66019 425.24106 88.91019 426.1473Q88.16019 427.05356 88.16019 429.00668ZM96.80081 429.00668Q96.80081 426.2723 98.33206 424.94418Q99.59769 423.85043 101.42581 423.85043Q103.45706 423.85043 104.746124 425.18637Q106.03519 426.5223 106.03519 428.86606Q106.03519 430.7723 105.464874 431.85825Q104.89456 432.94418 103.808624 433.54575Q102.72269 434.1473 101.42581 434.1473Q99.36331 434.1473 98.08206 432.81918Q96.80081 431.49106 96.80081 429.00668ZM98.51956 429.00668Q98.51956 430.8973 99.34769 431.8348Q100.17581 432.7723 101.42581 432.7723Q102.67581 432.7723 103.496124 431.827Q104.31644 430.88168 104.31644 428.94418Q104.31644 427.11606 103.48831 426.17856Q102.66019 425.24106 101.42581 425.24106Q100.17581 425.24106 99.34769 426.17856Q98.51956 427.11606 98.51956 429.00668ZM109.62894 433.92856L106.61331 424.06918L108.33206 424.06918L109.89456 429.75668L110.48831 431.88168Q110.51956 431.72543 110.98831 429.85043L112.56644 424.06918L114.28519 424.06918L115.75394 429.78793L116.23831 431.67856L116.81644 429.7723L118.50394 424.06918L120.12894 424.06918L117.05081 433.92856L115.31644 433.92856L113.73831 428.0223L113.36331 426.35043L111.36331 433.92856L109.62894 433.92856ZM126.45706 433.92856L126.45706 424.06918L127.95706 424.06918L127.95706 425.4598Q128.41019 424.74106 129.18362 424.29575Q129.95706 423.85043 130.94144 423.85043Q132.03519 423.85043 132.73831 424.30356Q133.44144 424.75668 133.72269 425.5848Q134.89456 423.85043 136.76956 423.85043Q138.23831 423.85043 139.02737 424.66293Q139.81644 425.47543 139.81644 427.16293L139.81644 433.92856L138.14456 433.92856L138.14456 427.72543Q138.14456 426.72543 137.98831 426.28012Q137.83206 425.8348 137.40237 425.56918Q136.97269 425.30356 136.39456 425.30356Q135.36331 425.30356 134.67581 425.99106Q133.98831 426.67856 133.98831 428.2098L133.98831 433.92856L132.31644 433.92856L132.31644 427.5223Q132.31644 426.41293 131.91019 425.85825Q131.50394 425.30356 130.56644 425.30356Q129.86331 425.30356 129.26175 425.67075Q128.66019 426.03793 128.39456 426.75668Q128.12894 427.47543 128.12894 428.81918L128.12894 433.92856L126.45706 433.92856ZM148.42581 432.7098Q147.48831 433.50668 146.62894 433.827Q145.76956 434.1473 144.78519 434.1473Q143.17581 434.1473 142.30081 433.35825Q141.42581 432.56918 141.42581 431.3348Q141.42581 430.60043 141.75394 430.00668Q142.08206 429.41293 142.61331 429.05356Q143.14456 428.69418 143.81644 428.50668Q144.31644 428.36606 145.30081 428.25668Q147.33206 428.00668 148.28519 427.67856Q148.28519 427.3348 148.28519 427.24106Q148.28519 426.22543 147.81644 425.80356Q147.17581 425.24106 145.91019 425.24106Q144.73831 425.24106 144.17581 425.6473Q143.61331 426.05356 143.34769 427.11606L141.70706 426.88168Q141.94144 425.8348 142.44925 425.19418Q142.95706 424.55356 143.918 424.202Q144.87894 423.85043 146.16019 423.85043Q147.42581 423.85043 148.20706 424.1473Q148.98831 424.44418 149.36331 424.8973Q149.73831 425.35043 149.87894 426.03793Q149.97269 426.4598 149.97269 427.56918L149.97269 429.80356Q149.97269 432.13168 150.07425 432.74887Q150.17581 433.36606 150.50394 433.92856L148.75394 433.92856Q148.48831 433.41293 148.42581 432.7098ZM148.28519 428.99106Q147.37894 429.35043 145.55081 429.61606Q144.51956 429.75668 144.09769 429.94418Q143.67581 430.13168 143.44144 430.49106Q143.20706 430.85043 143.20706 431.28793Q143.20706 431.9598 143.71487 432.40512Q144.22269 432.85043 145.19144 432.85043Q146.16019 432.85043 146.91019 432.42075Q147.66019 431.99106 148.01956 431.2723Q148.28519 430.69418 148.28519 429.60043L148.28519 428.99106ZM152.36331 433.92856L152.36331 424.06918L153.86331 424.06918L153.86331 425.47543Q154.95706 423.85043 157.00394 423.85043Q157.89456 423.85043 158.64456 424.17075Q159.39456 424.49106 159.76175 425.0145Q160.12894 425.53793 160.28519 426.24106Q160.37894 426.7098 160.37894 427.86606L160.37894 433.92856L158.70706 433.92856L158.70706 427.92856Q158.70706 426.91293 158.51175 426.40512Q158.31644 425.8973 157.81644 425.60043Q157.31644 425.30356 156.64456 425.30356Q155.58206 425.30356 154.80862 425.97543Q154.03519 426.6473 154.03519 428.55356L154.03519 433.92856L152.36331 433.92856ZM169.19144 432.7098Q168.25394 433.50668 167.39456 433.827Q166.53519 434.1473 165.55081 434.1473Q163.94144 434.1473 163.06644 433.35825Q162.19144 432.56918 162.19144 431.3348Q162.19144 430.60043 162.51956 430.00668Q162.84769 429.41293 163.37894 429.05356Q163.91019 428.69418 164.58206 428.50668Q165.08206 428.36606 166.06644 428.25668Q168.09769 428.00668 169.05081 427.67856Q169.05081 427.3348 169.05081 427.24106Q169.05081 426.22543 168.58206 425.80356Q167.94144 425.24106 166.67581 425.24106Q165.50394 425.24106 164.94144 425.6473Q164.37894 426.05356 164.11331 427.11606L162.47269 426.88168Q162.70706 425.8348 163.21487 425.19418Q163.72269 424.55356 164.68362 424.202Q165.64456 423.85043 166.92581 423.85043Q168.19144 423.85043 168.97269 424.1473Q169.75394 424.44418 170.12894 424.8973Q170.50394 425.35043 170.64456 426.03793Q170.73831 426.4598 170.73831 427.56918L170.73831 429.80356Q170.73831 432.13168 170.83987 432.74887Q170.94144 433.36606 171.26956 433.92856L169.51956 433.92856Q169.25394 433.41293 169.19144 432.7098ZM169.05081 428.99106Q168.14456 429.35043 166.31644 429.61606Q165.28519 429.75668 164.86331 429.94418Q164.44144 430.13168 164.20706 430.49106Q163.97269 430.85043 163.97269 431.28793Q163.97269 431.9598 164.4805 432.40512Q164.98831 432.85043 165.95706 432.85043Q166.92581 432.85043 167.67581 432.42075Q168.42581 431.99106 168.78519 431.2723Q169.05081 430.69418 169.05081 429.60043L169.05081 428.99106ZM172.83206 434.74106L174.44144 434.99106Q174.55081 435.74106 175.01956 436.0848Q175.62894 436.53793 176.70706 436.53793Q177.87894 436.53793 178.50394 436.077Q179.12894 435.61606 179.36331 434.78793Q179.48831 434.2723 179.47269 432.63168Q178.37894 433.92856 176.75394 433.92856Q174.72269 433.92856 173.6055 432.4598Q172.48831 430.99106 172.48831 428.94418Q172.48831 427.53793 173.00394 426.34262Q173.51956 425.1473 174.48831 424.49887Q175.45706 423.85043 176.75394 423.85043Q178.50394 423.85043 179.62894 425.25668L179.62894 424.06918L181.17581 424.06918L181.17581 432.5848Q181.17581 434.8973 180.70706 435.85825Q180.23831 436.81918 179.22269 437.37387Q178.20706 437.92856 176.72269 437.92856Q174.95706 437.92856 173.87112 437.13168Q172.78519 436.3348 172.83206 434.74106ZM174.20706 428.81918Q174.20706 430.7723 174.9805 431.66293Q175.75394 432.55356 176.91019 432.55356Q178.05081 432.55356 178.83206 431.66293Q179.61331 430.7723 179.61331 428.88168Q179.61331 427.06918 178.80862 426.15512Q178.00394 425.24106 176.87894 425.24106Q175.76956 425.24106 174.98831 426.1395Q174.20706 427.03793 174.20706 428.81918ZM190.25394 430.75668L191.97269 430.97543Q191.56644 432.47543 190.46487 433.31137Q189.36331 434.1473 187.64456 434.1473Q185.48831 434.1473 184.22269 432.81918Q182.95706 431.49106 182.95706 429.0848Q182.95706 426.60043 184.2305 425.22543Q185.50394 423.85043 187.55081 423.85043Q189.53519 423.85043 190.78519 425.19418Q192.03519 426.53793 192.03519 428.99106Q192.03519 429.13168 192.01956 429.42856L184.67581 429.42856Q184.76956 431.05356 185.59769 431.91293Q186.42581 432.7723 187.66019 432.7723Q188.56644 432.7723 189.21487 432.29575Q189.86331 431.81918 190.25394 430.75668ZM184.76956 428.05356L190.26956 428.05356Q190.16019 426.81918 189.64456 426.19418Q188.84769 425.22543 187.56644 425.22543Q186.42581 425.22543 185.63675 425.99887Q184.84769 426.7723 184.76956 428.05356ZM193.86331 433.92856L193.86331 424.06918L195.36331 424.06918L195.36331 425.56918Q195.94144 424.5223 196.42581 424.18637Q196.91019 423.85043 197.50394 423.85043Q198.34769 423.85043 199.22269 424.3973L198.64456 425.94418Q198.03519 425.5848 197.41019 425.5848Q196.86331 425.5848 196.43362 425.91293Q196.00394 426.24106 195.81644 426.81918Q195.53519 427.7098 195.53519 428.7723L195.53519 433.92856L193.86331 433.92856Z" fill-rule="nonzero" fill="#000000"></path><path d="M77.44144 454.92856L77.44144 453.47543Q76.30081 455.1473 74.31644 455.1473Q73.45706 455.1473 72.69925 454.81137Q71.94144 454.47543 71.57425 453.97543Q71.20706 453.47543 71.05081 452.74106Q70.95706 452.24106 70.95706 451.17856L70.95706 445.06918L72.62894 445.06918L72.62894 450.53793Q72.62894 451.85043 72.72269 452.30356Q72.87894 452.9598 73.39456 453.3348Q73.91019 453.7098 74.66019 453.7098Q75.41019 453.7098 76.06644 453.327Q76.72269 452.94418 76.996124 452.28012Q77.26956 451.61606 77.26956 450.35043L77.26956 445.06918L78.94144 445.06918L78.94144 454.92856L77.44144 454.92856ZM80.69144 451.99106L82.34769 451.72543Q82.48831 452.72543 83.121124 453.24887Q83.75394 453.7723 84.89456 453.7723Q86.05081 453.7723 86.6055 453.30356Q87.16019 452.8348 87.16019 452.2098Q87.16019 451.6473 86.67581 451.31918Q86.33206 451.10043 84.97269 450.75668Q83.12894 450.28793 82.418 449.952Q81.70706 449.61606 81.339874 449.0145Q80.97269 448.41293 80.97269 447.69418Q80.97269 447.03793 81.277374 446.47543Q81.58206 445.91293 82.09769 445.53793Q82.48831 445.25668 83.16019 445.05356Q83.83206 444.85043 84.59769 444.85043Q85.76956 444.85043 86.64456 445.18637Q87.51956 445.5223 87.933624 446.09262Q88.34769 446.66293 88.50394 447.61606L86.87894 447.8348Q86.76956 447.0848 86.2305 446.65512Q85.69144 446.22543 84.72269 446.22543Q83.56644 446.22543 83.08206 446.60825Q82.59769 446.99106 82.59769 447.49106Q82.59769 447.81918 82.80081 448.0848Q83.00394 448.35043 83.44144 448.5223Q83.69144 448.61606 84.91019 448.9598Q86.67581 449.42856 87.37894 449.72543Q88.08206 450.0223 88.4805 450.60043Q88.87894 451.17856 88.87894 452.03793Q88.87894 452.86606 88.39456 453.60825Q87.91019 454.35043 86.98831 454.74887Q86.06644 455.1473 84.91019 455.1473Q82.98831 455.1473 81.9805 454.35043Q80.97269 453.55356 80.69144 451.99106ZM97.44144 451.75668L99.16019 451.97543Q98.75394 453.47543 97.652374 454.31137Q96.55081 455.1473 94.83206 455.1473Q92.67581 455.1473 91.41019 453.81918Q90.14456 452.49106 90.14456 450.0848Q90.14456 447.60043 91.418 446.22543Q92.69144 444.85043 94.73831 444.85043Q96.72269 444.85043 97.97269 446.19418Q99.22269 447.53793 99.22269 449.99106Q99.22269 450.13168 99.20706 450.42856L91.86331 450.42856Q91.95706 452.05356 92.78519 452.91293Q93.61331 453.7723 94.84769 453.7723Q95.75394 453.7723 96.402374 453.29575Q97.05081 452.81918 97.44144 451.75668ZM91.95706 449.05356L97.45706 449.05356Q97.34769 447.81918 96.83206 447.19418Q96.03519 446.22543 94.75394 446.22543Q93.61331 446.22543 92.82425 446.99887Q92.03519 447.7723 91.95706 449.05356ZM101.05081 454.92856L101.05081 445.06918L102.55081 445.06918L102.55081 446.56918Q103.12894 445.5223 103.61331 445.18637Q104.09769 444.85043 104.69144 444.85043Q105.53519 444.85043 106.41019 445.3973L105.83206 446.94418Q105.22269 446.5848 104.59769 446.5848Q104.05081 446.5848 103.621124 446.91293Q103.19144 447.24106 103.00394 447.81918Q102.72269 448.7098 102.72269 449.7723L102.72269 454.92856L101.05081 454.92856ZM112.47269 443.24106L112.47269 441.3348L114.14456 441.3348L114.14456 443.24106L112.47269 443.24106ZM112.47269 454.92856L112.47269 445.06918L114.14456 445.06918L114.14456 454.92856L112.47269 454.92856ZM116.61331 454.92856L116.61331 445.06918L118.11331 445.06918L118.11331 446.47543Q119.20706 444.85043 121.25394 444.85043Q122.14456 444.85043 122.89456 445.17075Q123.64456 445.49106 124.01175 446.0145Q124.37894 446.53793 124.53519 447.24106Q124.62894 447.7098 124.62894 448.86606L124.62894 454.92856L122.95706 454.92856L122.95706 448.92856Q122.95706 447.91293 122.76175 447.40512Q122.56644 446.8973 122.06644 446.60043Q121.56644 446.30356 120.89456 446.30356Q119.83206 446.30356 119.058624 446.97543Q118.28519 447.6473 118.28519 449.55356L118.28519 454.92856L116.61331 454.92856ZM130.64456 453.42856L130.87894 454.91293Q130.17581 455.05356 129.61331 455.05356Q128.70706 455.05356 128.20706 454.7645Q127.70706 454.47543 127.50394 454.0145Q127.30081 453.55356 127.30081 452.03793L127.30081 446.38168L126.06644 446.38168L126.06644 445.06918L127.30081 445.06918L127.30081 442.63168L128.95706 441.63168L128.95706 445.06918L130.64456 445.06918L130.64456 446.38168L128.95706 446.38168L128.95706 452.13168Q128.95706 452.85043 129.043 453.05356Q129.12894 453.25668 129.33206 453.38168Q129.53519 453.50668 129.91019 453.50668Q130.17581 453.50668 130.64456 453.42856ZM138.91019 451.75668L140.62894 451.97543Q140.22269 453.47543 139.12112 454.31137Q138.01956 455.1473 136.30081 455.1473Q134.14456 455.1473 132.87894 453.81918Q131.61331 452.49106 131.61331 450.0848Q131.61331 447.60043 132.88675 446.22543Q134.16019 444.85043 136.20706 444.85043Q138.19144 444.85043 139.44144 446.19418Q140.69144 447.53793 140.69144 449.99106Q140.69144 450.13168 140.67581 450.42856L133.33206 450.42856Q133.42581 452.05356 134.25394 452.91293Q135.08206 453.7723 136.31644 453.7723Q137.22269 453.7723 137.87112 453.29575Q138.51956 452.81918 138.91019 451.75668ZM133.42581 449.05356L138.92581 449.05356Q138.81644 447.81918 138.30081 447.19418Q137.50394 446.22543 136.22269 446.22543Q135.08206 446.22543 134.293 446.99887Q133.50394 447.7723 133.42581 449.05356ZM142.51956 454.92856L142.51956 445.06918L144.01956 445.06918L144.01956 446.56918Q144.59769 445.5223 145.08206 445.18637Q145.56644 444.85043 146.16019 444.85043Q147.00394 444.85043 147.87894 445.3973L147.30081 446.94418Q146.69144 446.5848 146.06644 446.5848Q145.51956 446.5848 145.08987 446.91293Q144.66019 447.24106 144.47269 447.81918Q144.19144 448.7098 144.19144 449.7723L144.19144 454.92856L142.51956 454.92856ZM149.16019 454.92856L149.16019 446.38168L147.67581 446.38168L147.67581 445.06918L149.16019 445.06918L149.16019 444.0223Q149.16019 443.03793 149.33206 442.55356Q149.56644 441.8973 150.17581 441.49887Q150.78519 441.10043 151.87894 441.10043Q152.58206 441.10043 153.44144 441.25668L153.19144 442.72543Q152.67581 442.63168 152.20706 442.63168Q151.44144 442.63168 151.12894 442.952Q150.81644 443.2723 150.81644 444.16293L150.81644 445.06918L152.73831 445.06918L152.73831 446.38168L150.81644 446.38168L150.81644 454.92856L149.16019 454.92856ZM160.37894 453.7098Q159.44144 454.50668 158.58206 454.827Q157.72269 455.1473 156.73831 455.1473Q155.12894 455.1473 154.25394 454.35825Q153.37894 453.56918 153.37894 452.3348Q153.37894 451.60043 153.70706 451.00668Q154.03519 450.41293 154.56644 450.05356Q155.09769 449.69418 155.76956 449.50668Q156.26956 449.36606 157.25394 449.25668Q159.28519 449.00668 160.23831 448.67856Q160.23831 448.3348 160.23831 448.24106Q160.23831 447.22543 159.76956 446.80356Q159.12894 446.24106 157.86331 446.24106Q156.69144 446.24106 156.12894 446.6473Q155.56644 447.05356 155.30081 448.11606L153.66019 447.88168Q153.89456 446.8348 154.40237 446.19418Q154.91019 445.55356 155.87112 445.202Q156.83206 444.85043 158.11331 444.85043Q159.37894 444.85043 160.16019 445.1473Q160.94144 445.44418 161.31644 445.8973Q161.69144 446.35043 161.83206 447.03793Q161.92581 447.4598 161.92581 448.56918L161.92581 450.80356Q161.92581 453.13168 162.02737 453.74887Q162.12894 454.36606 162.45706 454.92856L160.70706 454.92856Q160.44144 454.41293 160.37894 453.7098ZM160.23831 449.99106Q159.33206 450.35043 157.50394 450.61606Q156.47269 450.75668 156.05081 450.94418Q155.62894 451.13168 155.39456 451.49106Q155.16019 451.85043 155.16019 452.28793Q155.16019 452.9598 155.668 453.40512Q156.17581 453.85043 157.14456 453.85043Q158.11331 453.85043 158.86331 453.42075Q159.61331 452.99106 159.97269 452.2723Q160.23831 451.69418 160.23831 450.60043L160.23831 449.99106ZM170.75394 451.31918L172.39456 451.53793Q172.12894 453.22543 171.01956 454.18637Q169.91019 455.1473 168.28519 455.1473Q166.26956 455.1473 165.043 453.827Q163.81644 452.50668 163.81644 450.03793Q163.81644 448.44418 164.33987 447.24887Q164.86331 446.05356 165.94925 445.452Q167.03519 444.85043 168.30081 444.85043Q169.91019 444.85043 170.92581 445.66293Q171.94144 446.47543 172.23831 447.97543L170.61331 448.22543Q170.37894 447.22543 169.78519 446.72543Q169.19144 446.22543 168.36331 446.22543Q167.09769 446.22543 166.30862 447.13168Q165.51956 448.03793 165.51956 449.99106Q165.51956 451.97543 166.28519 452.87387Q167.05081 453.7723 168.26956 453.7723Q169.25394 453.7723 169.91019 453.17075Q170.56644 452.56918 170.75394 451.31918ZM180.39456 451.75668L182.11331 451.97543Q181.70706 453.47543 180.6055 454.31137Q179.50394 455.1473 177.78519 455.1473Q175.62894 455.1473 174.36331 453.81918Q173.09769 452.49106 173.09769 450.0848Q173.09769 447.60043 174.37112 446.22543Q175.64456 444.85043 177.69144 444.85043Q179.67581 444.85043 180.92581 446.19418Q182.17581 447.53793 182.17581 449.99106Q182.17581 450.13168 182.16019 450.42856L174.81644 450.42856Q174.91019 452.05356 175.73831 452.91293Q176.56644 453.7723 177.80081 453.7723Q178.70706 453.7723 179.3555 453.29575Q180.00394 452.81918 180.39456 451.75668ZM174.91019 449.05356L180.41019 449.05356Q180.30081 447.81918 179.78519 447.19418Q178.98831 446.22543 177.70706 446.22543Q176.56644 446.22543 175.77737 446.99887Q174.98831 447.7723 174.91019 449.05356Z" fill-rule="nonzero" fill="#000000"></path><path d="M65.06492 530.8728L65.06492 517.27905L69.75242 517.27905Q71.33054 517.27905 72.17429 517.46655Q73.33054 517.7322 74.15867 518.4353Q75.23679 519.3572 75.76804 520.77124Q76.29929 522.1853 76.29929 523.9978Q76.29929 525.5447 75.93992 526.74Q75.58054 527.9353 75.01804 528.72437Q74.45554 529.5134 73.78367 529.95874Q73.11179 530.40405 72.15867 530.6384Q71.20554 530.8728 69.97117 530.8728L65.06492 530.8728ZM66.86179 529.2634L69.76804 529.2634Q71.11179 529.2634 71.87742 529.0134Q72.64304 528.7634 73.09617 528.3103Q73.73679 527.6697 74.09617 526.59155Q74.45554 525.5134 74.45554 523.96655Q74.45554 521.84155 73.75242 520.6931Q73.04929 519.5447 72.04929 519.15405Q71.33054 518.8728 69.72117 518.8728L66.86179 518.8728L66.86179 529.2634ZM85.06492 527.7009L86.78367 527.9197Q86.37742 529.4197 85.275856 530.2556Q84.17429 531.09155 82.45554 531.09155Q80.29929 531.09155 79.03367 529.7634Q77.76804 528.4353 77.76804 526.02905Q77.76804 523.5447 79.04148 522.1697Q80.31492 520.7947 82.36179 520.7947Q84.34617 520.7947 85.59617 522.1384Q86.84617 523.4822 86.84617 525.9353Q86.84617 526.0759 86.83054 526.3728L79.48679 526.3728Q79.58054 527.9978 80.40867 528.8572Q81.23679 529.71655 82.47117 529.71655Q83.37742 529.71655 84.025856 529.24Q84.67429 528.7634 85.06492 527.7009ZM79.58054 524.9978L85.08054 524.9978Q84.97117 523.7634 84.45554 523.1384Q83.65867 522.1697 82.37742 522.1697Q81.23679 522.1697 80.44773 522.9431Q79.65867 523.71655 79.58054 524.9978ZM88.68992 534.65405L88.68992 521.0134L90.22117 521.0134L90.22117 522.2947Q90.75242 521.5447 91.432106 521.1697Q92.11179 520.7947 93.06492 520.7947Q94.33054 520.7947 95.29929 521.4431Q96.26804 522.09155 96.76023 523.27905Q97.25242 524.46655 97.25242 525.8728Q97.25242 527.3884 96.70554 528.59937Q96.15867 529.8103 95.12742 530.4509Q94.09617 531.09155 92.95554 531.09155Q92.11179 531.09155 91.44773 530.74Q90.78367 530.3884 90.36179 529.8572L90.36179 534.65405L88.68992 534.65405ZM90.20554 525.9978Q90.20554 527.90405 90.97898 528.8103Q91.75242 529.71655 92.84617 529.71655Q93.95554 529.71655 94.744606 528.77905Q95.53367 527.84155 95.53367 525.8572Q95.53367 523.9822 94.76023 523.0447Q93.98679 522.1072 92.90867 522.1072Q91.84617 522.1072 91.025856 523.1072Q90.20554 524.1072 90.20554 525.9978ZM105.81492 527.7009L107.53367 527.9197Q107.12742 529.4197 106.025856 530.2556Q104.92429 531.09155 103.20554 531.09155Q101.04929 531.09155 99.78367 529.7634Q98.51804 528.4353 98.51804 526.02905Q98.51804 523.5447 99.79148 522.1697Q101.06492 520.7947 103.11179 520.7947Q105.09617 520.7947 106.34617 522.1384Q107.59617 523.4822 107.59617 525.9353Q107.59617 526.0759 107.58054 526.3728L100.23679 526.3728Q100.33054 527.9978 101.15867 528.8572Q101.98679 529.71655 103.22117 529.71655Q104.12742 529.71655 104.775856 529.24Q105.42429 528.7634 105.81492 527.7009ZM100.33054 524.9978L105.83054 524.9978Q105.72117 523.7634 105.20554 523.1384Q104.40867 522.1697 103.12742 522.1697Q101.98679 522.1697 101.19773 522.9431Q100.40867 523.71655 100.33054 524.9978ZM109.43992 530.8728L109.43992 521.0134L110.93992 521.0134L110.93992 522.4197Q112.03367 520.7947 114.08054 520.7947Q114.97117 520.7947 115.72117 521.115Q116.47117 521.4353 116.838356 521.95874Q117.20554 522.4822 117.36179 523.1853Q117.45554 523.65405 117.45554 524.8103L117.45554 530.8728L115.78367 530.8728L115.78367 524.8728Q115.78367 523.8572 115.588356 523.34937Q115.39304 522.84155 114.89304 522.5447Q114.39304 522.2478 113.72117 522.2478Q112.65867 522.2478 111.88523 522.9197Q111.11179 523.59155 111.11179 525.4978L111.11179 530.8728L109.43992 530.8728ZM126.20554 530.8728L126.20554 529.6228Q125.26804 531.09155 123.45554 531.09155Q122.28367 531.09155 121.29148 530.4431Q120.29929 529.7947 119.76023 528.6306Q119.22117 527.46655 119.22117 525.9509Q119.22117 524.4822 119.713356 523.27905Q120.20554 522.0759 121.182106 521.4353Q122.15867 520.7947 123.37742 520.7947Q124.26804 520.7947 124.963356 521.1697Q125.65867 521.5447 126.09617 522.15405L126.09617 517.27905L127.75242 517.27905L127.75242 530.8728L126.20554 530.8728ZM120.92429 525.9509Q120.92429 527.84155 121.72898 528.77905Q122.53367 529.71655 123.61179 529.71655Q124.70554 529.71655 125.47117 528.8259Q126.23679 527.9353 126.23679 526.09155Q126.23679 524.0759 125.45554 523.1306Q124.67429 522.1853 123.53367 522.1853Q122.42429 522.1853 121.67429 523.09155Q120.92429 523.9978 120.92429 525.9509ZM129.51805 527.9353L131.1743 527.6697Q131.31493 528.6697 131.94774 529.1931Q132.58055 529.71655 133.72118 529.71655Q134.87743 529.71655 135.43211 529.2478Q135.9868 528.77905 135.9868 528.15405Q135.9868 527.59155 135.50243 527.2634Q135.15868 527.0447 133.7993 526.7009Q131.95555 526.2322 131.24461 525.89624Q130.53368 525.5603 130.16649 524.95874Q129.7993 524.3572 129.7993 523.6384Q129.7993 522.9822 130.10399 522.4197Q130.40868 521.8572 130.9243 521.4822Q131.31493 521.2009 131.9868 520.9978Q132.65868 520.7947 133.4243 520.7947Q134.59618 520.7947 135.47118 521.1306Q136.34618 521.46655 136.76024 522.03687Q137.1743 522.6072 137.33055 523.5603L135.70555 523.77905Q135.59618 523.02905 135.05711 522.59937Q134.51805 522.1697 133.5493 522.1697Q132.39305 522.1697 131.90868 522.5525Q131.4243 522.9353 131.4243 523.4353Q131.4243 523.7634 131.62743 524.02905Q131.83055 524.2947 132.26805 524.46655Q132.51805 524.5603 133.7368 524.90405Q135.50243 525.3728 136.20555 525.6697Q136.90868 525.96655 137.30711 526.5447Q137.70555 527.1228 137.70555 527.9822Q137.70555 528.8103 137.22118 529.5525Q136.7368 530.2947 135.81493 530.6931Q134.89305 531.09155 133.7368 531.09155Q131.81493 531.09155 130.80711 530.2947Q129.7993 529.4978 129.51805 527.9353ZM144.08055 525.9509Q144.08055 523.21655 145.6118 521.8884Q146.87743 520.7947 148.70555 520.7947Q150.7368 520.7947 152.02586 522.1306Q153.31493 523.46655 153.31493 525.8103Q153.31493 527.71655 152.74461 528.8025Q152.1743 529.8884 151.08836 530.49Q150.00243 531.09155 148.70555 531.09155Q146.64305 531.09155 145.3618 529.7634Q144.08055 528.4353 144.08055 525.9509ZM145.7993 525.9509Q145.7993 527.84155 146.62743 528.77905Q147.45555 529.71655 148.70555 529.71655Q149.95555 529.71655 150.77586 528.77124Q151.59618 527.8259 151.59618 525.8884Q151.59618 524.0603 150.76805 523.1228Q149.93993 522.1853 148.70555 522.1853Q147.45555 522.1853 146.62743 523.1228Q145.7993 524.0603 145.7993 525.9509ZM155.08055 530.8728L155.08055 521.0134L156.58055 521.0134L156.58055 522.4197Q157.6743 520.7947 159.72118 520.7947Q160.6118 520.7947 161.3618 521.115Q162.1118 521.4353 162.47899 521.95874Q162.84618 522.4822 163.00243 523.1853Q163.09618 523.65405 163.09618 524.8103L163.09618 530.8728L161.4243 530.8728L161.4243 524.8728Q161.4243 523.8572 161.22899 523.34937Q161.03368 522.84155 160.53368 522.5447Q160.03368 522.2478 159.3618 522.2478Q158.2993 522.2478 157.52586 522.9197Q156.75243 523.59155 156.75243 525.4978L156.75243 530.8728L155.08055 530.8728ZM179.4243 522.8728L170.45555 522.8728L170.45555 521.3103L179.4243 521.3103L179.4243 522.8728ZM179.4243 526.9978L170.45555 526.9978L170.45555 525.4509L179.4243 525.4509L179.4243 526.9978Z" fill-rule="nonzero" fill="#000000"></path><path d="M193.25722 538.5276L193.25722 522.2441" fill-rule="evenodd" stroke="#073763" stroke-width="2.0" stroke-linejoin="round" stroke-linecap="butt"></path><path d="M196.56068 522.2441L193.25722 513.1679L189.95375 522.2441Z" fill-rule="evenodd" fill="#073763" stroke="#073763" stroke-width="2.0" stroke-linecap="butt"></path></svg>

